<svg height="504pt" viewBox="0 -2 504.78941 504" width="504pt" xmlns="http://www.w3.org/2000/svg"><path d="m172.085938 187.066406c-11.632813 9.199219-22.117188 19.769532-31.222657 31.476563-24.175781 30.117187-41.117187 65.378906-49.523437 103.070312-10.40625 49.355469-18.128906 114.402344 27.617187 148.3125 3.171875 2.386719 6.507813 4.546875 9.988281 6.464844-10.792968 3.53125-21.9375 5.867187-33.238281 6.964844-7.664062.703125-15.386719.25-22.914062-1.34375-19.378907-3.730469-36.003907-16.089844-45.15625-33.574219-13.011719-24.507812-16.703125-54.304688-18.382813-81.667969-2.464844-23.949219.167969-48.148437 7.722656-71.007812 7.246094-18.292969 16.898438-35.539063 28.703126-51.28125 11.003906-15.34375 23.640624-29.441407 37.6875-42.054688 9.296874-9.519531 20.675781-16.761719 33.238281-21.148437.921875-.253906 1.847656-.421875 2.769531-.589844 17.804688-3.503906 36.257812-1.269531 52.710938 6.378906zm0 0" fill="#d84315"/><path d="m139.183594 187.066406c-11.632813 9.199219-22.117188 19.769532-31.222656 31.476563-24.175782 30.117187-41.117188 65.378906-49.523438 103.070312-10.40625 49.355469-18.128906 114.402344 27.617188 148.3125 3.171874 2.386719 6.507812 4.546875 9.988281 6.464844-7.597657 2.453125-15.371094 4.335937-23.25 5.621094-19.378907-3.730469-36.003907-16.089844-45.15625-33.574219-13.011719-24.507812-16.703125-54.304688-18.382813-81.667969-2.464844-23.949219.167969-48.148437 7.722656-71.007812 7.246094-18.292969 16.898438-35.539063 28.703126-51.28125 11.003906-15.34375 23.640624-29.441407 37.6875-42.054688 9.296874-9.519531 20.675781-16.761719 33.238281-21.148437.921875-.253906 1.847656-.421875 2.769531-.589844 6.832031 1.339844 13.480469 3.480469 19.808594 6.378906zm0 0" fill="#ff5722"/><path d="m172.085938 187.066406-8.898438 59.679688-15.527344 104.246094-18.714844 125.398437c-3.480468-1.917969-6.816406-4.078125-9.988281-6.464844-45.746093-33.910156-38.023437-98.957031-27.617187-148.3125 8.40625-37.691406 25.347656-72.953125 49.523437-103.070312 9.105469-11.707031 19.589844-22.277344 31.222657-31.476563zm0 0" fill="#d84315"/><path d="m376.296875 476.558594c10.65625 3.476562 21.664063 5.753906 32.820313 6.796875 27.71875 3.5 54.742187-10.363281 68.070312-34.917969 13.011719-24.507812 16.703125-54.304688 18.382812-81.667969 2.460938-23.949219-.167968-48.148437-7.722656-71.007812-7.246094-18.292969-16.898437-35.539063-28.707031-51.28125-11-15.34375-23.636719-29.441407-37.683594-42.054688-9.300781-9.519531-20.675781-16.761719-33.238281-21.148437-18.390625-4.382813-37.71875-2.367188-54.808594 5.707031zm0 0" fill="#d84315"/><path d="m346 476.558594c10.652344 3.476562 21.660156 5.753906 32.816406 6.796875 27.71875 3.5 54.746094-10.363281 68.070313-34.917969 13.011719-24.507812 16.703125-54.304688 18.382812-81.667969 2.460938-23.949219-.167969-48.148437-7.722656-71.007812-7.246094-18.292969-16.898437-35.539063-28.707031-51.28125-11-15.34375-23.636719-29.441407-37.683594-42.054688-9.296875-9.519531-20.675781-16.761719-33.238281-21.148437-18.386719-4.382813-37.71875-2.367188-54.808594 5.707031zm0 0" fill="#ff5722"/><path d="m194.664062 172.882812s15.898438-79.476562 125.0625-161.09375c5.5-4.0625 13.011719-4.023437 18.464844.097657l.976563.730469c4.230469 3.226562 6.515625 8.398437 6.050781 13.699218-.46875 5.300782-3.621094 9.996094-8.351562 12.429688-24.914063 13.488281-55.785157 47.785156-33.757813 134.136718l-33.574219 75.539063zm0 0" fill="#2e7d32"/><path d="m241.164062 187.992188-.25 7.71875c-1.570312-1.464844-3.226562-2.835938-4.953124-4.109376-18.867188 14.949219-33.675782 34.402344-43.058594 56.570313-13.707032 34.015625-18.726563 70.910156-14.605469 107.351563 2.144531 36.207031 12.046875 71.53125 29.042969 103.574218 5.527344 10.769532 13.28125 20.238282 22.746094 27.785156v.082032c-18.601563 4.390625-37.78125 5.808594-56.824219 4.195312h-.085938c-7.640625-.714844-15.183593-2.261718-22.492187-4.613281-7.589844-2.59375-14.878906-6-21.738282-10.15625-3.480468-1.917969-6.816406-4.078125-9.988281-6.464844-45.746093-33.910156-38.023437-98.957031-27.617187-148.3125 8.40625-37.691406 25.347656-72.953125 49.523437-103.070312 9.105469-11.707031 19.589844-22.277344 31.222657-31.476563 1.003906-.910156 2.070312-1.75 3.191406-2.515625 4.800781-3.914062 10.074218-7.214843 15.695312-9.820312.25-.085938.417969-.167969.671875-.253907 1.007813-.484374 2.082031-.824218 3.1875-1.007812 1.363281-.394531 2.777344-.589844 4.195313-.585938 13.261718 0 34.246094 10.742188 42.136718 15.109376zm0 0" fill="#f57c00"/><path d="m162.519531 248.171875c-13.25 32.550781-18.351562 67.847656-14.859375 102.820313 0 1.511718.167969 3.019531.253906 4.53125 2.140626 36.207031 12.046876 71.53125 29.039063 103.574218 5.527344 10.769532 13.28125 20.238282 22.746094 27.785156v.082032c-8.691407 2.066406-17.53125 3.472656-26.4375 4.195312h-.085938c-7.640625-.714844-15.183593-2.261718-22.492187-4.613281-7.589844-2.59375-14.878906-6-21.738282-10.15625-3.480468-1.917969-6.816406-4.078125-9.988281-6.464844-45.746093-33.910156-38.023437-98.957031-27.617187-148.3125 8.40625-37.691406 25.347656-72.953125 49.523437-103.070312 9.105469-11.707031 19.589844-22.277344 31.222657-31.476563 1.003906-.910156 2.070312-1.75 3.191406-2.515625 4.800781-3.914062 10.074218-7.214843 15.695312-9.820312 9.648438.910156 19.136719 3.109375 28.199219 6.546875 0 0-11.917969 11.582031-13.597656 10.324218-18.460938 14.601563-33.023438 33.546876-42.386719 55.144532-.257812.457031-.480469.933594-.667969 1.425781zm0 0" fill="#ff9801"/><path d="m240.914062 195.710938-10.828124 291.171874c-9.464844-7.546874-17.21875-17.015624-22.746094-27.785156-16.996094-32.042968-26.898438-67.367187-29.042969-103.574218-4.121094-36.441407.898437-73.335938 14.605469-107.351563 9.382812-22.167969 24.191406-41.621094 43.058594-56.570313 1.726562 1.273438 3.382812 2.644532 4.953124 4.109376zm0 0" fill="#f57c00"/><path d="m419.609375 415.535156c-2.945313 21.953125-14.9375 41.675782-33.070313 54.390625-3.257812 2.441407-6.679687 4.660157-10.242187 6.632813-6.773437 4.101562-13.980469 7.453125-21.484375 9.988281-17.917969 5.210937-36.714844 6.695313-55.230469 4.363281-8.140625-.730468-16.222656-2.046875-24.171875-3.945312l-11.078125-298.972656c6.972657-3.886719 14.207031-7.277344 21.652344-10.15625 5.492187-2.285157 11.242187-3.890626 17.125-4.785157 1.171875-.085937 2.265625-.167969 3.355469-.167969 2.542968.042969 5.050781.585938 7.386718 1.59375 5.882813 2.609376 11.386719 5.996094 16.367188 10.074219 1.089844.753907 2.183594 1.59375 3.191406 2.433594 11.613282 9.25 22.09375 19.84375 31.222656 31.558594 43.355469 55.960937 63.089844 126.667969 54.976563 196.992187zm0 0" fill="#f57c00"/><path d="m385.027344 415.535156c-2.945313 21.953125-14.933594 41.675782-33.070313 54.390625-3.257812 2.441407-6.679687 4.660157-10.238281 6.632813-6.777344 4.101562-13.984375 7.453125-21.488281 9.988281-6.710938 2.171875-13.632813 3.632813-20.648438 4.363281-8.140625-.730468-16.222656-2.046875-24.171875-3.945312l-11.078125-298.972656c6.972657-3.886719 14.207031-7.277344 21.652344-10.15625 3.339844 2.058593 6.5625 4.300781 9.652344 6.714843 1.09375.753907 2.183593 1.59375 3.191406 2.433594 11.613281 9.25 22.097656 19.84375 31.222656 31.558594 43.359375 55.960937 63.089844 126.667969 54.976563 196.992187zm0 0" fill="#ff9801"/><path d="m135.238281 105.734375s8.394531-41.964844 33.574219-50.359375c0 0-50.359375 16.785156-67.148438 0 0 0-16.785156 33.574219-50.359374 25.179688 0 0 8.394531 50.359374-33.574219 58.753906 0 0 58.753906 0 58.753906 16.785156 0 0 25.179687-33.570312 58.753906-16.785156z" fill="#00695c"/><path d="m327.195312 355.523438c-2.140624 36.207031-12.046874 71.53125-29.039062 103.574218-7.304688 12.757813-20.398438 32.734375-37.097656 32.734375h-16.621094c-2.914062-.03125-5.792969-.632812-8.476562-1.761719-12.675782-5.035156-22.578126-20.480468-28.621094-30.972656-16.996094-32.042968-26.898438-67.367187-29.042969-103.574218-4.121094-36.441407.898437-73.335938 14.605469-107.351563 9.382812-22.167969 24.191406-41.621094 43.058594-56.570313 2.601562-1.933593 5.203124-3.777343 7.972656-5.457031 5.394531-3.359375 12.230468-3.359375 17.625 0 22.765625 15.179688 40.523437 36.765625 51.035156 62.027344 13.707031 34.015625 18.726562 70.910156 14.601562 107.351563zm0 0" fill="#d84315"/><path d="m293.625 355.523438c-2.144531 36.207031-12.046875 71.53125-29.042969 103.574218-6.042969 10.492188-15.949219 25.9375-28.621093 30.972656-2.078126-.828124-4.050782-1.898437-5.875-3.1875-9.464844-7.546874-17.21875-17.015624-22.746094-27.785156-16.996094-32.042968-26.898438-67.367187-29.042969-103.574218-4.121094-36.441407.898437-73.335938 14.605469-107.351563 9.382812-22.167969 24.191406-41.621094 43.058594-56.570313 1.726562 1.273438 3.382812 2.644532 4.953124 4.109376 16.523438 14.363281 29.558594 32.304687 38.105469 52.460937 13.707031 34.015625 18.726563 70.910156 14.605469 107.351563zm0 0" fill="#ff5722"/><path d="m465.941406 239.550781c-11.347656-15.828125-24.382812-30.378906-38.878906-43.386719-10.273438-10.457031-22.871094-18.34375-36.761719-23.019531-18.550781-4.53125-38.054687-3.058593-55.71875 4.195313l-.226562-.167969c-2.878907-2.140625-6.210938-4.550781-9.792969-6.714844 9.171875-21.386719 26.210938-48.917969 46.046875-60.148437-.445313 12.75 4.351563 25.125 13.269531 34.246094 13.457032 13.59375 33.464844 18.367187 51.609375 12.320312 4.808594-1.488281 9.125-4.253906 12.492188-7.996094 5.214843-6.460937 6.855469-15.105468 4.363281-23.023437-2.101562-6.519531-5.90625-12.359375-11.019531-16.914063-8.632813-7.816406-18.925781-13.574218-30.101563-16.847656-6.171875-2-12.574218-3.199219-19.050781-3.574219.433594-1.148437.886719-2.28125 1.375-3.414062 8.21875-19.84375 25.71875-54.382813 50.359375-62.699219.921875-.292969 1.859375-.515625 2.8125-.664062 2.980469-.332032 5.558594-2.226563 6.765625-4.972657 1.203125-2.746093.851563-5.925781-.925781-8.34375-1.773438-2.414062-4.703125-3.699219-7.683594-3.371093-2.109375.289062-4.1875.757812-6.214844 1.402343-29.5 9.953125-49.25 44.769531-60.597656 72.183594-1.679688 3.9375-3.121094 7.976563-4.316406 12.085937-30.003906 9.234376-52.953125 46.222657-64.285156 72.320313-16.492188-73.148437 7.597656-103.996094 31.34375-116.886719 7.332031-3.929687 12.144531-11.335937 12.746093-19.632812.605469-8.027344-2.941406-15.808594-9.398437-20.617188l-.992188-.738281c-8.445312-6.328125-20.042968-6.375-28.535156-.109375-81.183594 60.746094-111.894531 120.144531-122.746094 148.691406-9.789062-21.980468-26.136718-40.398437-46.800781-52.726562 3.691406-12.589844 12.363281-33.011719 26.386719-37.6875.277344-.09375.539062-.203125.789062-.3125h.074219c4.046875-1.867188 5.925781-6.574219 4.28125-10.714844s-6.238281-6.277344-10.464844-4.863281c-18.886719 6.273437-49.523437 11.046875-58.5625 2.03125-1.902343-1.902344-4.605469-2.777344-7.261719-2.355469-2.660156.425781-4.953124 2.101562-6.167968 4.503906-.554688 1.09375-14.308594 27.390625-40.808594 20.785156-2.742188-.6875-5.644531.050782-7.726562 1.964844-2.078126 1.914063-3.054688 4.746094-2.597657 7.535156.277344 1.730469 6.464844 42.488282-26.933593 49.167969-4.21875.859375-7.105469 4.769531-6.683594 9.054688.425781 4.285156 4.023437 7.550781 8.328125 7.566406 23.058593 0 47.601562 4.390625 50.359375 8.390625 0 3.613281 2.3125 6.820312 5.742187 7.964844 3.425781 1.140625 7.199219-.035156 9.367188-2.925782.839843-1.144531 21.519531-27.75 48.304687-14.335937 2.597656 1.289063 5.675782 1.148437 8.144532-.375s3.972656-4.214844 3.984374-7.113281v-19.625c16.910157 13.140625 29.855469 30.707031 37.402344 50.746094-3.40625 2.074218-6.707031 4.3125-9.890625 6.714843l-.316406.246094c-17.859375-7.277344-37.546875-8.769531-56.296875-4.265625-13.878906 4.675781-26.460938 12.554688-36.726562 23-14.507813 13.007812-27.550782 27.558594-38.90625 43.394531-12.273438 16.335938-22.289063 34.257813-29.769532 53.273438-7.925781 23.980469-10.738281 49.355469-8.253906 74.488281 1.664062 27.1875 5.273438 58.578125 19.375 85.101562 13.410156 25.125 39.886719 40.492188 68.355469 39.667969 2.59375 0 5.21875-.109375 7.863281-.335937 10.710938-1.03125 21.292969-3.148438 31.578125-6.3125 6.355469 3.625 13.027344 6.667968 19.933594 9.082031 12.910156 4.058594 26.390625 6 39.917969 5.742187 13.699218-.039062 27.355468-1.523437 40.742187-4.421874 4.804687 2.816406 10.253906 4.339843 15.824219 4.421874h16.566406c5.566406-.070312 11.015625-1.582031 15.820312-4.390624 13.394532 2.890624 27.058594 4.359374 40.761719 4.390624 13.519531.246094 26.988281-1.699218 39.882813-5.765624 6.84375-2.355469 13.453125-5.347657 19.742187-8.929688 10.15625 3.117188 20.605469 5.179688 31.183594 6.160156 2.644531.21875 5.261719.328125 7.847656.328125 28.453125.820313 54.917969-14.53125 68.339844-39.636719 14.066406-26.503906 17.625-57.914062 19.304687-85.101562 2.484376-25.128906-.328124-50.503906-8.253906-74.480469-7.464844-19.003906-17.464844-36.917969-29.71875-53.25zm-78.1875-134.292969c6.253906-.078124 12.476563.882813 18.417969 2.84375 8.742187 2.503907 16.808594 6.949219 23.59375 13 2.945313 2.546876 5.179687 5.816407 6.480469 9.488282.859375 2.492187.46875 5.246094-1.050782 7.402344-1.457031 1.429687-3.253906 2.472656-5.21875 3.019531-11.972656 3.878906-25.105468.742187-34.027343-8.132813-6.976563-7.371094-10.023438-17.621094-8.203125-27.605468zm-260.699218-1.394531c-.085938.386719-.144532.78125-.175782 1.175781v.839844 21.5625c-17.949218-3.285156-36.367187 2.398438-49.34375 15.226563-9.378906-5.773438-19.996094-9.226563-30.972656-10.074219 9.648438-11.941406 14.617188-26.988281 13.976562-42.328125 17.4375-.222656 33.703126-8.839844 43.6875-23.140625 11.5 4.191406 23.898438 5.3125 35.964844 3.257812-6.089844 10.417969-10.523437 21.71875-13.144531 33.496094zm197.65625-85.351562c2.511718-1.828125 5.917968-1.796875 8.394531.074219l.992187.746093c1.894532 1.375 2.9375 3.636719 2.75 5.96875-.195312 2.585938-1.714844 4.886719-4.019531 6.078125-23.667969 12.839844-59.339844 47.472656-39.683594 135.226563-9.878906 2.957031-19.4375 6.894531-28.539062 11.75-1.59375-.917969-3.28125-1.660157-5.035157-2.214844-2.046874-19.886719 1.09375-39.960937 9.125-58.269531 2.023438-4.140625.328126-9.140625-3.796874-11.199219-4.128907-2.054687-9.140626-.398437-11.226563 3.714844-9.386719 21.058593-13.117187 44.203125-10.828125 67.144531-.621094.269531-1.257812.496094-1.863281.839844-11.054688-6.082032-22.925781-10.535156-35.253907-13.226563 7.925782-22.914062 35.605469-84.269531 118.984376-146.632812zm-229.703126 456.484375c-24.359374 3.167968-48.167968-8.941406-59.960937-30.492188-12.589844-23.679687-15.855469-52.878906-17.417969-78.226562-2.296875-22.769532.152344-45.765625 7.195313-67.535156 6.960937-17.613282 16.265625-34.207032 27.65625-49.335938 10.644531-14.859375 22.875-28.511719 36.476562-40.71875 8.335938-8.574219 18.484375-15.171875 29.703125-19.304688 12.199219-2.972656 24.960938-2.742187 37.042969.671876-7.710937 7.199218-14.871094 14.96875-21.414063 23.242187-24.964843 31.164063-42.480468 67.625-51.199218 106.597656-10.953125 52.105469-17.515625 115.9375 26.296875 152.953125-4.75.980469-9.546875 1.699219-14.378907 2.148438zm58.410157 3.617187c-7.160157-2.457031-14.035157-5.683593-20.503907-9.617187-3.117187-1.726563-6.109374-3.667969-8.957031-5.808594-41.3125-30.628906-34.738281-90.816406-24.398437-139.851562 8.15625-36.398438 24.519531-70.453126 47.84375-99.5625 8.835937-11.367188 19.023437-21.617188 30.332031-30.527344.796875-.703125 1.636719-1.355469 2.519531-1.949219l.878906-.652344c4.28125-3.453125 9-6.324219 14.035157-8.527343.296875-.160157.613281-.273438.941406-.335938.363281-.058594.726563-.136719 1.082031-.246094.597656-.171875 1.214844-.257812 1.835938-.257812 9.222656 1.078125 18.167968 3.84375 26.390625 8.15625-17.355469 15.25-31.097657 34.175781-40.230469 55.398437-14.316406 35.289063-19.546875 73.609375-15.214844 111.445313 2.101563 37.425781 12.375 73.933594 30.089844 106.96875 3.582031 6.507812 7.730469 12.683594 12.394531 18.464844-19.667969 3.273437-39.816406 2.21875-59.039062-3.097657zm91.046875 4.828125c-8.984375 0-19.011719-9.605468-29.832032-28.539062-16.488281-30.929688-26.027343-65.085938-27.941406-100.082032-4.066406-35.035156.707032-70.527343 13.882813-103.242187 9.835937-23.707031 26.449219-43.984375 47.757812-58.292969 1.121094-.667968 2.382813-1.066406 3.683594-1.15625.28125-.003906.5625-.023437.839844-.058594h.066406c1.484375.035157 2.933594.464844 4.199219 1.242188 21.308594 14.308594 37.921875 34.585938 47.757812 58.292969 13.175782 32.714843 17.949219 68.207031 13.882813 103.238281-1.90625 34.984375-11.429688 69.132812-27.898438 100.058594-10.820312 18.925781-20.851562 28.539062-29.832031 28.539062zm107.617187-4.835937c-19.222656 5.316406-39.375 6.371093-59.046875 3.089843 4.667969-5.78125 8.816406-11.960937 12.398438-18.46875 17.714844-33.03125 27.984375-69.539062 30.089844-106.964843 4.332031-37.835938-.902344-76.15625-15.21875-111.449219-9.128907-21.21875-22.875-40.144531-40.226563-55.394531 7.492187-3.785157 15.484375-6.484375 23.734375-8.015625 2.402344-.351563 4.855469-.035156 7.09375.914062 4.8125 2.183594 9.328125 4.976563 13.429688 8.308594l1.097656.839844c.839844.613281 1.773437 1.292968 2.820312 2.167968 11.09375 8.828126 21.09375 18.949219 29.789063 30.148438 41.992187 54.148438 61.101562 122.59375 53.238281 190.664062-2.644531 19.707032-13.445312 37.398438-29.761719 48.757813-3.042969 2.28125-6.238281 4.347656-9.570312 6.1875-6.265625 3.789063-12.925781 6.878906-19.867188 9.214844zm135.136719-112.347657c-1.5625 25.398438-4.851562 54.558594-17.410156 78.238282-11.828125 21.519531-35.617188 33.621094-59.976563 30.5-4.617187-.40625-9.207031-1.074219-13.75-1.996094 17.5625-13.921875 29.003907-34.140625 31.894531-56.363281 8.402344-72.585938-11.964843-145.578125-56.730468-203.332031-6.570313-8.300782-13.75-16.101563-21.480469-23.332032 11.890625-3.332031 24.441406-3.527344 36.429687-.5625 11.234376 4.125 21.402344 10.722656 29.746094 19.304688 13.597656 12.203125 25.828125 25.855468 36.46875 40.707031 11.382813 15.128906 20.679688 31.714844 27.640625 49.320313 7.023438 21.769531 9.457031 44.757812 7.140625 67.515624zm0 0"/><path d="m210.78125 340.75c-4.636719 0-8.394531 3.757812-8.394531 8.394531v17.03125c0 4.636719 3.757812 8.394531 8.394531 8.394531 4.632812 0 8.390625-3.757812 8.390625-8.394531v-17.03125c0-4.636719-3.757813-8.394531-8.390625-8.394531zm0 0"/><path d="m240.273438 224.445312c-3.96875-2.382812-9.117188-1.097656-11.507813 2.867188-1.082031 1.804688-26.378906 44.46875-26.378906 88.257812 0 4.636719 3.757812 8.394532 8.394531 8.394532 4.632812 0 8.390625-3.757813 8.390625-8.394532 0-39.0625 23.746094-79.214843 23.988281-79.621093 2.378906-3.972657 1.085938-9.125-2.886718-11.503907zm0 0"/></svg>