<svg height="512pt" viewBox="-34 0 512 512.00205" width="512pt" xmlns="http://www.w3.org/2000/svg"><path d="m201.691406 424.875c-14.4375 3.136719-29.367187 3.28125-43.863281.429688 7.890625-1.445313 15.570313-3.851563 22.871094-7.167969 6.710937 3.050781 13.757812 5.3125 20.992187 6.738281zm0 0" fill="#d84315"/><path d="m415.878906 275.203125c-5.28125-.007813-10.496094-1.175781-15.277344-3.414063-2.242187-1.195312-3.84375-3.320312-4.371093-5.804687-.527344-2.488281.074219-5.078125 1.640625-7.082031 10.496094-13.3125 35.839844-47.871094 38.742187-75.007813.238281-2.957031-1.089843-5.824219-3.5-7.550781-2.410156-1.730469-5.550781-2.070312-8.277343-.894531-7.765626 3.242187-18.773438 7.847656-30.71875 12.371093-15.027344 5.949219-30.417969 10.9375-46.078126 14.933594-2.746093.621094-5.617187-.152344-7.679687-2.0625s-3.054687-4.710937-2.648437-7.496094c.085937-.425781.257812-.851562.34375-1.277343 5.203124-17.578125 11.945312-50.261719.765624-78.679688-1.074218-2.550781-3.332031-4.410156-6.042968-4.972656-2.710938-.5625-5.523438.246094-7.523438 2.15625-7.308594 7.078125-15 13.742187-23.039062 19.96875-.179688.144531-.382813.261719-.597656.34375-2.335938 1.496094-5.257813 1.753906-7.816407.679687-2.558593-1.074218-4.421875-3.339843-4.984375-6.058593-.9375-4.4375-2.132812-9.984375-3.667968-16.210938-8.707032-34.050781-27.734376-89.003906-62.550782-100.609375-7.945312 2.816406-15.128906 7.429688-20.992187 13.484375-26.964844 26.621094-40.363281 80.042969-45.226563 103.335938-.589844 2.84375-2.59375 5.1875-5.3125 6.210937-2.71875 1.019532-5.769531.578125-8.085937-1.175781-8.039063-6.226563-15.730469-12.890625-23.039063-19.96875-.503906-.519531-1.117187-.925781-1.792968-1.191406-2.0625-1.195313-4.542969-1.4375-6.796876-.671875-2.257812.769531-4.070312 2.476562-4.976562 4.679687-2.191406 5.675781-3.765625 11.570313-4.695312 17.578125-2.644532 20.523438-.78125 41.375 5.460937 61.101563.925781 2.902343.21875 6.078125-1.84375 8.316406-2.0625 2.242187-5.171875 3.203125-8.140625 2.519531-10.714844-2.621094-21.28125-5.8125-31.65625-9.558594-17.066406-6.144531-34.304688-13.140624-45.140625-17.746093-2.726563-1.175781-5.867187-.835938-8.277344.894531-2.410156 1.726562-3.738281 4.59375-3.5 7.550781.171875 1.28125.339844 2.5625.597657 3.925781 4.691406 26.453126 28.160156 58.367188 38.144531 71.082032 1.566406 2.003906 2.167969 4.59375 1.640625 7.082031-.527344 2.484375-2.128906 4.609375-4.371094 5.804687-4.78125 2.238282-9.996094 3.40625-15.277344 3.414063-3.382812.113281-6.378906 2.214844-7.636718 5.359375-1.253907 3.140625-.535157 6.730469 1.835937 9.144531 14.519531 13.824219 30.097656 26.492188 46.589844 37.890625 2.324219 1.640625 3.675781 4.332032 3.605469 7.171875-.066407 2.84375-1.546876 5.464844-3.945313 6.992188-2.402344 1.441406-4.878906 2.753906-7.425781 3.925781-2.460938 1.113281-4.25 3.328125-4.820313 5.96875-.574219 2.640625.140625 5.394531 1.921875 7.429688 18.0625 19.308593 38.472656 36.28125 60.757813 50.515624 11.351562 7.667969 24.113281 13.003907 37.542969 15.703126h.085937c7.890625-1.445313 15.570313-3.851563 22.871094-7.167969 6.710937 3.050781 13.757812 5.3125 20.992187 6.738281 7.203125-1.433594 14.21875-3.695312 20.90625-6.738281 7.300782 3.316406 14.980469 5.722656 22.871094 7.167969h.082031c27.515625 5.566406 56.117188-.085938 79.445313-15.703126 22.285156-14.234374 42.695312-31.207031 60.757812-50.515624 1.78125-2.035157 2.492188-4.789063 1.921875-7.429688-.570312-2.640625-2.359375-4.855469-4.824219-5.96875-2.542968-1.171875-5.019531-2.484375-7.421874-3.925781-2.398438-1.527344-3.878907-4.148438-3.945313-6.992188-.070313-2.839843 1.28125-5.53125 3.605469-7.171875 16.492187-11.398437 32.070312-24.066406 46.589844-37.890625 2.371093-2.414062 3.089843-6.003906 1.835937-9.144531-1.257813-3.144531-4.253906-5.246094-7.636719-5.359375zm0 0" fill="#d84315"/><path d="m379.78125 289.707031c-14.539062 13.804688-30.113281 26.46875-46.589844 37.890625-2.332031 1.625-3.699218 4.308594-3.648437 7.148438.050781 2.84375 1.515625 5.472656 3.902343 7.015625 2.429688 1.445312 4.9375 2.753906 7.507813 3.925781 2.464844 1.113281 4.253906 3.328125 4.824219 5.96875.570312 2.640625-.140625 5.394531-1.921875 7.429688-18.0625 19.308593-38.472657 36.28125-60.757813 50.515624-11.351562 7.667969-24.113281 13.003907-37.546875 15.703126h-.082031c-7.890625-1.445313-15.570312-3.851563-22.871094-7.167969-6.6875 3.042969-13.703125 5.304687-20.90625 6.738281-7.234375-1.425781-14.28125-3.6875-20.992187-6.738281-7.300781 3.316406-14.980469 5.722656-22.871094 7.167969h-.085937c-13.429688-2.699219-26.191407-8.035157-37.542969-15.703126-22.285157-14.234374-42.695313-31.207031-60.757813-50.515624-1.78125-2.035157-2.496094-4.789063-1.921875-7.429688.570313-2.640625 2.359375-4.855469 4.820313-5.96875 2.546875-1.171875 5.023437-2.484375 7.425781-3.925781 2.398437-1.527344 3.878906-4.148438 3.945313-6.992188.070312-2.839843-1.28125-5.53125-3.605469-7.171875-16.492188-11.398437-32.070313-24.066406-46.589844-37.890625-2.371094-2.414062-3.089844-6.003906-1.835937-9.144531 1.257812-3.144531 4.253906-5.246094 7.636718-5.359375 5.28125-.007813 10.496094-1.175781 15.277344-3.414063 2.242188-1.195312 3.84375-3.320312 4.371094-5.804687.527344-2.488281-.074219-5.078125-1.640625-7.082031-9.984375-12.714844-33.453125-44.628906-38.144531-71.082032-.257813-1.363281-.425782-2.644531-.597657-3.925781-.238281-2.957031 1.089844-5.824219 3.5-7.550781 2.410157-1.730469 5.550781-2.070312 8.277344-.894531 10.835937 4.605469 28.074219 11.601562 45.140625 17.746093 10.375 3.746094 20.941406 6.9375 31.65625 9.558594 2.96875.683594 6.078125-.277344 8.140625-2.519531 2.0625-2.238281 2.769531-5.414063 1.84375-8.316406-6.242187-19.726563-8.105469-40.578125-5.460937-61.101563.929687-6.007812 2.503906-11.902344 4.695312-17.578125.90625-2.203125 2.71875-3.910156 4.976562-4.679687 2.253907-.765625 4.734376-.523438 6.796876.671875.675781.265625 1.289062.671875 1.792968 1.191406 7.308594 7.078125 15 13.742187 23.039063 19.96875 2.316406 1.753906 5.367187 2.195313 8.085937 1.175781 2.71875-1.023437 4.722656-3.367187 5.3125-6.210937 4.863282-23.292969 18.261719-76.714844 45.226563-103.335938 26.964843 26.621094 40.449219 80.042969 45.226562 103.335938.609375 2.851562 2.628907 5.195312 5.359375 6.214843 2.734375 1.019532 5.796875.574219 8.125-1.179687 8.011719-6.226563 15.675782-12.894531 22.953125-19.96875.570313-.5 1.199219-.929687 1.878907-1.277344 1.535156 6.226563 2.730468 11.773438 3.667968 16.210938.5625 2.71875 2.425782 4.984375 4.984375 6.058593 2.558594 1.074219 5.480469.816407 7.816407-.679687 2.667968 20.554687.773437 41.441406-5.546876 61.183594-.890624 2.898437-.171874 6.050781 1.882813 8.28125s5.136719 3.203125 8.101563 2.554687c10.710937-2.632812 21.277343-5.824218 31.65625-9.558594-.40625 2.785157.585937 5.585938 2.648437 7.496094s4.933594 2.683594 7.679687 2.0625c15.660157-3.996094 31.050782-8.984375 46.078126-14.933594-4.691407 26.453126-28.160157 58.367188-38.230469 71.082032-1.582031 2.007812-2.183594 4.613281-1.636719 7.109375.546875 2.496093 2.179688 4.613281 4.453125 5.777343 4.753906 2.230469 9.9375 3.394532 15.191406 3.414063 3.398438.078125 6.421875 2.171875 7.703125 5.320313 1.277344 3.148437.5625 6.757812-1.816406 9.183593zm0 0" fill="#ff5722"/><path d="m245.46875 425.304688c-14.46875 2.851562-29.367188 2.707031-43.777344-.429688 7.203125-1.433594 14.21875-3.695312 20.90625-6.738281 7.300782 3.316406 14.980469 5.722656 22.871094 7.167969zm0 0" fill="#ff5722"/><path d="m438.414062 169.636719c-4.875-3.617188-11.300781-4.390625-16.894531-2.039063-24.429687 10.746094-49.605469 19.703125-75.332031 26.800782 5.460938-18.183594 12.796875-53.316407.613281-84.28125-2.054687-5.152344-6.53125-8.949219-11.949219-10.128907-5.558593-1.261719-11.382812.339844-15.519531 4.265625-6.171875 5.835938-15.035156 13.925782-22.1875 19.351563-6.613281-32.03125-26.8125-108.15625-71.851562-123.167969-1.75-.582031-3.640625-.582031-5.390625 0-45.039063 15.011719-65.238282 91.136719-71.828125 123.117188-7.742188-6.046876-15.164063-12.492188-22.234375-19.308594-4.136719-3.925782-9.957032-5.523438-15.515625-4.265625-5.417969 1.179687-9.898438 4.980469-11.945313 10.136719-12.179687 30.957031-4.847656 66.089843.679688 84.300781-25.742188-7.105469-50.933594-16.070313-75.382813-26.820313-5.597656-2.351562-12.015625-1.574218-16.894531 2.039063-4.777344 3.492187-7.324219 9.273437-6.6835938 15.15625 3.0156248 28.21875 26.7109378 61.863281 40.5273438 79.433593-3.628906 1.628907-7.5625 2.453126-11.539062 2.417969-6.851563.210938-12.917969 4.480469-15.425782 10.863281-2.542968 6.292969-1.027344 13.5 3.832032 18.242188 14.863281 14.171875 30.84375 27.128906 47.785156 38.742188-2.105469 1.265624-4.28125 2.40625-6.519532 3.414062-4.953124 2.300781-8.53125 6.796875-9.660156 12.140625-1.105468 5.257813.375 10.722656 3.976563 14.703125 18.554687 19.839844 39.515625 37.277344 62.394531 51.917969 18.554688 12.589843 40.464844 19.300781 62.882812 19.269531 12.109376-.011719 24.148438-1.847656 35.710938-5.445312v72.976562c0 4.710938 3.820312 8.535156 8.535156 8.535156 4.710938 0 8.53125-3.824218 8.53125-8.535156v-72.976562c33.25 10.722656 69.574219 5.640624 98.605469-13.789063 22.878906-14.640625 43.839844-32.082031 62.394531-51.917969 3.605469-3.984375 5.082032-9.453125 3.976563-14.710937-1.117188-5.351563-4.703125-9.859375-9.667969-12.152344-2.1875-1.003906-4.320312-2.121094-6.390625-3.34375 16.84375-11.730469 32.777344-24.71875 47.65625-38.851563 4.859375-4.742187 6.371094-11.949218 3.832031-18.246093-2.503906-6.378907-8.570312-10.652344-15.417968-10.863281-3.992188.035156-7.945313-.792969-11.589844-2.433594 13.859375-17.550782 37.546875-51.199219 40.566406-79.417969.636719-5.875-1.910156-11.640625-6.679688-15.128906zm-47.285156 84.011719c-3.140625 3.988281-4.34375 9.171874-3.28125 14.140624 1.066406 4.96875 4.292969 9.203126 8.796875 11.550782 5.933594 2.871094 12.453125 4.328125 19.046875 4.265625-14.203125 13.484375-29.402344 25.875-45.46875 37.070312-4.691406 3.3125-7.398437 8.765625-7.210937 14.507813.144531 5.640625 3.109375 10.835937 7.894531 13.832031 2.734375 1.683594 5.585938 3.164063 8.535156 4.429687-17.621094 18.738282-37.488281 35.226563-59.15625 49.089844-26.351562 17.558594-59.578125 21.269532-89.15625 9.949219v-76.730469c42.605469-2.058594 82.296875-22.222656 109.082032-55.414062 7.550781-9.007813 13.742187-19.070313 18.382812-29.867188 1.53125-4.382812-.722656-9.183594-5.070312-10.808594-4.347657-1.625-9.195313.523438-10.914063 4.835938-4.03125 9.074219-9.316406 17.542969-15.691406 25.15625-23.554688 29.160156-58.359375 46.972656-95.789063 49.03125v-71.976562c43.523438-7.46875 82.304688-68.746094 84.039063-71.519532 2.496093-4.007812 1.273437-9.277344-2.730469-11.777344-4.007812-2.496093-9.28125-1.273437-11.777344 2.730469-10.179687 16.214844-40.746094 55.980469-69.5625 63.0625v-152.40625c0-4.710937-3.820312-8.53125-8.535156-8.53125-4.710938 0-8.53125 3.820313-8.53125 8.53125v152.40625c-28.816406-7.082031-59.382812-46.8125-69.566406-63.0625-2.496094-4.003906-7.769532-5.226562-11.773438-2.730469-4.007812 2.5-5.230468 7.769532-2.730468 11.777344 1.707031 2.773438 40.515624 64.050782 84.035156 71.519532v71.976562c-37.402344-2.074219-72.179688-19.890625-95.71875-49.03125-6.382813-7.628906-11.664063-16.113281-15.691406-25.207031-1.71875-4.3125-6.566407-6.460938-10.914063-4.835938s-6.601563 6.425781-5.070313 10.808594c4.640626 10.796875 10.832032 20.859375 18.382813 29.867187 26.777344 33.207032 66.46875 53.390626 109.078125 55.464844v76.707032c-29.589844 11.140624-62.726562 7.4375-89.128906-9.957032-21.65625-13.816406-41.484375-30.304687-59.015625-49.078125 2.878906-1.304687 5.675781-2.789062 8.371093-4.445312 4.796876-2.984375 7.777344-8.183594 7.925782-13.832031.191406-5.742188-2.523438-11.195313-7.21875-14.507813-16.035156-11.15625-31.203125-23.515625-45.363282-36.972656 6.539063-.007813 12.992188-1.488281 18.882813-4.328125 4.507813-2.347656 7.734375-6.585938 8.800781-11.554688s-.140625-10.15625-3.285156-14.148437c-7.996094-10.117188-34.269531-45.105469-37.035156-70.332031 25.371094 11.15625 51.527344 20.433593 78.257812 27.761718 5.914063 1.320313 12.089844-.589844 16.21875-5.027344s5.59375-10.730468 3.851563-16.539062c-4.828125-16.074219-11.375-46.929688-1.246094-72.855469 7.550781 7.269531 15.476563 14.144531 23.742187 20.589844 4.671876 3.496094 10.804688 4.359375 16.261719 2.296875s9.480469-6.773438 10.667969-12.484375c4.597656-22.179687 22.007812-94.269531 57.847656-109.398437 35.839844 15.128906 53.246094 87.21875 57.8125 109.40625 1.195313 5.707031 5.21875 10.414062 10.675782 12.472656 5.457031 2.0625 11.585937 1.195312 16.257812-2.300782 8.316406-6.410156 16.191406-13.378906 23.566406-20.855468 10.300782 26.179687 3.753906 57.054687-1.074218 73.128906-1.746094 5.808594-.277344 12.105469 3.855468 16.542969 4.132813 4.4375 10.308594 6.347656 16.222656 5.023437 26.773438-7.28125 52.929688-16.671875 78.21875-28.09375-2.730468 25.558594-29.007812 60.546875-37.003906 70.675782zm0 0"/></svg>