<svg height="512pt" viewBox="-17 0 512 512.10424" width="512pt" xmlns="http://www.w3.org/2000/svg"><path d="m128.0625 119.46875v366.933594c0 9.425781-7.640625 17.066406-17.066406 17.066406-9.425782 0-17.066406-7.640625-17.066406-17.066406v-366.847656zm0 0" fill="#8bc34a"/><path d="m76.863281 76.800781v59.734375h68.265625v-68.265625l-1.808594-3.328125c-5.613281-21.324218-16.765624-40.78125-32.324218-56.40625-15.578125 15.644532-26.734375 35.136719-32.339844 56.492188zm0 0" fill="#ff9801"/><g fill="#ffb301"><path d="m110.996094 145.238281c-8.570313-.035156-17.117188-.921875-25.515625-2.644531-18.667969-3.128906-36.019531-11.640625-49.917969-24.492188-24.320312-24.320312-26.878906-62.546874-27.136719-72.789062v-2.644531s47.105469-1.195313 75.433594 27.136719c28.332031 28.332031 27.136719 75.433593 27.136719 75.433593zm0 0"/><path d="m186.261719 118.101562c-28.332031 28.332032-75.433594 27.136719-75.433594 27.136719v-2.644531c.253906-10.238281 2.8125-48.46875 27.132813-72.789062 13.902343-12.851563 31.25-21.363282 49.921874-24.492188 8.394532-1.722656 16.941407-2.609375 25.515626-2.644531 0 0 1.191406 47.105469-27.136719 75.433593zm0 0"/><path d="m110.996094 256.171875c-8.570313-.035156-17.117188-.921875-25.515625-2.644531-18.667969-3.128906-36.019531-11.640625-49.917969-24.492188-24.320312-24.320312-26.878906-62.546875-27.136719-72.789062v-2.644532s47.105469-1.195312 75.433594 27.136719c28.332031 28.328125 27.136719 75.433594 27.136719 75.433594zm0 0"/><path d="m186.261719 229.035156c-28.332031 28.332032-75.433594 27.136719-75.433594 27.136719v-2.644531c.253906-10.242188 2.8125-48.46875 27.132813-72.789063 13.902343-12.851562 31.25-21.363281 49.921874-24.492187 8.394532-1.722656 16.941407-2.609375 25.515626-2.644532 0 0 1.191406 47.105469-27.136719 75.433594zm0 0"/><path d="m110.996094 366.933594c-8.570313-.03125-17.117188-.917969-25.515625-2.644532-18.667969-3.125-36.019531-11.636718-49.917969-24.488281-24.320312-24.320312-26.878906-62.550781-27.136719-72.792969v-2.644531s47.105469-1.195312 75.433594 27.136719c28.332031 28.332031 27.136719 75.433594 27.136719 75.433594zm0 0"/></g><path d="m85.480469 142.59375c-18.667969-3.128906-36.019531-11.640625-49.917969-24.492188-24.320312-24.320312-26.878906-62.546874-27.136719-72.789062 18.695313 3.125 36.074219 11.636719 50.007813 24.492188 24.316406 24.320312 26.878906 62.550781 27.046875 72.789062zm0 0" fill="#fdd834"/><path d="m85.480469 253.527344c-18.667969-3.128906-36.019531-11.640625-49.917969-24.492188-24.320312-24.320312-26.878906-62.546875-27.136719-72.789062 18.695313 3.125 36.074219 11.636718 50.007813 24.492187 24.316406 24.320313 26.878906 62.546875 27.046875 72.789063zm0 0" fill="#fdd834"/><path d="m85.480469 364.289062c-18.667969-3.125-36.019531-11.636718-49.917969-24.488281-24.320312-24.320312-26.878906-62.550781-27.136719-72.792969 18.695313 3.125 36.074219 11.636719 50.007813 24.492188 24.316406 24.320312 26.878906 62.550781 27.046875 72.789062zm0 0" fill="#fdd834"/><path d="m186.261719 339.800781c-28.332031 28.328125-75.433594 27.132813-75.433594 27.132813v-2.644532c.253906-10.238281 2.8125-48.46875 27.132813-72.789062 13.902343-12.851562 31.25-21.363281 49.921874-24.492188 8.394532-1.722656 16.941407-2.609374 25.515626-2.644531 0 0 1.191406 47.105469-27.136719 75.4375zm0 0" fill="#ffb301"/><path d="m187.882812 45.3125c-.171874 10.242188-2.730468 48.46875-27.050781 72.789062-13.929687 12.855469-31.308593 21.367188-50.003906 24.492188.253906-10.238281 2.8125-48.46875 27.132813-72.789062 13.902343-12.851563 31.25-21.363282 49.921874-24.492188zm0 0" fill="#fdd834"/><path d="m187.882812 156.246094c-.171874 10.242187-2.730468 48.46875-27.050781 72.789062-13.929687 12.855469-31.308593 21.367188-50.003906 24.492188.253906-10.242188 2.8125-48.46875 27.132813-72.789063 13.902343-12.851562 31.25-21.363281 49.921874-24.492187zm0 0" fill="#fdd834"/><path d="m187.882812 267.007812c-.171874 10.242188-2.730468 48.472657-27.050781 72.792969-13.929687 12.851563-31.308593 21.363281-50.003906 24.488281.253906-10.238281 2.8125-48.46875 27.132813-72.789062 13.902343-12.851562 31.25-21.363281 49.921874-24.492188zm0 0" fill="#fdd834"/><path d="m8.597656 401.066406c-.042968 4.558594 1.777344 8.933594 5.035156 12.121094 3.191407 3.183594 7.523438 4.964844 12.03125 4.949219 18.859376.652343 36.914063 7.796875 51.113282 20.222656 12.003906 13.019531 18.199218 30.363281 17.152344 48.042969 0 9.425781 7.640624 17.066406 17.066406 17.066406 9.425781 0 17.066406-7.640625 17.066406-17.066406 1.214844-26.765625-8.59375-52.855469-27.132812-72.191406-2.304688-2.21875-4.609376-4.351563-7-6.230469-12.09375-9.535157-26.089844-16.371094-41.042969-20.054688-8.890625-2.371093-18.027344-3.6875-27.222657-3.925781-4.527343 0-8.867187 1.800781-12.066406 5-3.203125 3.199219-5 7.542969-5 12.066406zm0 0" fill="#558b30"/><path d="m349.777344 119.46875v366.933594c0 9.425781 7.640625 17.066406 17.066406 17.066406s17.066406-7.640625 17.066406-17.066406v-366.847656zm0 0" fill="#8bc34a"/><path d="m400.960938 76.800781v59.734375h-68.269532v-68.265625l1.8125-3.328125c5.617188-21.324218 16.777344-40.785156 32.339844-56.40625 15.578125 15.644532 26.734375 35.136719 32.339844 56.492188zm0 0" fill="#ff9801"/><path d="m366.996094 145.238281c-8.570313-.035156-17.117188-.921875-25.515625-2.644531-18.667969-3.128906-36.019531-11.640625-49.917969-24.492188-24.320312-24.320312-26.878906-62.546874-27.136719-72.789062v-2.644531s47.105469-1.195313 75.433594 27.136719c28.332031 28.332031 27.136719 75.433593 27.136719 75.433593zm0 0" fill="#ffb301"/><path d="m442.253906 118.101562c-28.332031 28.332032-75.4375 27.136719-75.4375 27.136719v-2.644531c.257813-10.238281 2.816406-48.46875 27.136719-72.789062 13.898437-12.851563 31.25-21.363282 49.921875-24.492188 8.398438-1.722656 16.949219-2.609375 25.523438-2.644531 0 0 1.183593 47.105469-27.144532 75.433593zm0 0" fill="#ffb301"/><path d="m366.996094 256.171875c-8.570313-.035156-17.117188-.921875-25.515625-2.644531-18.667969-3.128906-36.019531-11.640625-49.917969-24.492188-24.320312-24.320312-26.878906-62.546875-27.136719-72.789062v-2.644532s47.105469-1.195312 75.433594 27.136719c28.332031 28.328125 27.136719 75.433594 27.136719 75.433594zm0 0" fill="#ffb301"/><path d="m442.253906 229.035156c-28.332031 28.332032-75.4375 27.136719-75.4375 27.136719v-2.644531c.257813-10.242188 2.816406-48.46875 27.136719-72.789063 13.898437-12.851562 31.25-21.363281 49.921875-24.492187 8.398438-1.722656 16.949219-2.609375 25.523438-2.644532 0 0 1.183593 47.105469-27.144532 75.433594zm0 0" fill="#ffb301"/><path d="m366.996094 366.933594c-8.570313-.03125-17.117188-.917969-25.515625-2.644532-18.667969-3.125-36.019531-11.636718-49.917969-24.488281-24.320312-24.320312-26.878906-62.550781-27.136719-72.792969v-2.644531s47.105469-1.195312 75.433594 27.136719c28.332031 28.332031 27.136719 75.433594 27.136719 75.433594zm0 0" fill="#ffb301"/><path d="m341.472656 142.59375c-18.667968-3.128906-36.019531-11.640625-49.917968-24.492188-24.320313-24.320312-26.878907-62.546874-27.136719-72.789062 18.695312 3.125 36.074219 11.636719 50.003906 24.492188 24.320313 24.320312 26.882813 62.550781 27.050781 72.789062zm0 0" fill="#fdd834"/><path d="m341.472656 253.527344c-18.667968-3.128906-36.019531-11.640625-49.917968-24.492188-24.320313-24.320312-26.878907-62.546875-27.136719-72.789062 18.695312 3.125 36.074219 11.636718 50.003906 24.492187 24.320313 24.320313 26.882813 62.546875 27.050781 72.789063zm0 0" fill="#fdd834"/><path d="m341.472656 364.289062c-18.667968-3.125-36.019531-11.636718-49.917968-24.488281-24.320313-24.320312-26.878907-62.550781-27.136719-72.792969 18.695312 3.125 36.074219 11.636719 50.003906 24.492188 24.320313 24.320312 26.882813 62.550781 27.050781 72.789062zm0 0" fill="#fdd834"/><path d="m442.253906 339.800781c-28.324218 28.328125-75.4375 27.132813-75.4375 27.132813v-2.644532c.257813-10.238281 2.816406-48.46875 27.136719-72.789062 13.898437-12.851562 31.25-21.363281 49.921875-24.492188 8.398438-1.722656 16.949219-2.609374 25.523438-2.644531 0 0 1.183593 47.105469-27.144532 75.4375zm0 0" fill="#ffb301"/><path d="m443.875 45.3125c-.171875 10.242188-2.730469 48.46875-27.050781 72.789062-13.933594 12.855469-31.308594 21.367188-50.007813 24.492188.257813-10.238281 2.816406-48.46875 27.136719-72.789062 13.898437-12.851563 31.25-21.363282 49.921875-24.492188zm0 0" fill="#fdd834"/><path d="m443.875 156.246094c-.171875 10.242187-2.730469 48.46875-27.050781 72.789062-13.933594 12.855469-31.308594 21.367188-50.007813 24.492188.257813-10.242188 2.816406-48.46875 27.136719-72.789063 13.898437-12.851562 31.25-21.363281 49.921875-24.492187zm0 0" fill="#fdd834"/><path d="m443.875 267.007812c-.171875 10.242188-2.730469 48.472657-27.050781 72.792969-13.933594 12.851563-31.308594 21.363281-50.007813 24.488281.257813-10.238281 2.816406-48.46875 27.136719-72.789062 13.898437-12.851562 31.25-21.363281 49.921875-24.492188zm0 0" fill="#fdd834"/><path d="m469.226562 401.066406c.042969 4.558594-1.777343 8.933594-5.035156 12.121094-3.191406 3.183594-7.523437 4.964844-12.03125 4.949219-18.859375.652343-36.914062 7.796875-51.113281 20.222656-12.007813 13.019531-18.199219 30.363281-17.152344 48.042969 0 9.425781-7.640625 17.066406-17.066406 17.066406s-17.070313-7.640625-17.070313-17.066406c-1.210937-26.765625 8.597657-52.855469 27.136719-72.191406 2.304688-2.21875 4.609375-4.351563 7-6.230469 12.09375-9.535157 26.089844-16.371094 41.042969-20.054688 8.890625-2.371093 18.027344-3.6875 27.222656-3.925781 4.527344 0 8.867188 1.800781 12.066406 5 3.203126 3.199219 5 7.542969 5 12.066406zm0 0" fill="#558b30"/><path d="m8.390625 255.824219c-4.550781.105469-8.214844 3.765625-8.328125 8.316406-.0507812 2.066406-.910156 51.097656 29.65625 81.664063 15.503906 14.398437 34.941406 23.855468 55.839844 27.164062v19.046875c-9.507813-5.476563-19.714844-9.632813-30.34375-12.347656-9.589844-2.550781-19.445313-3.960938-29.363282-4.199219-14.136718 0-25.601562 11.460938-25.601562 25.597656 0 14.105469 11.40625 25.550782 25.507812 25.601563 16.628907.628906 32.554688 6.875 45.175782 17.722656 10.34375 11.425781 15.628906 26.550781 14.652344 41.933594v.078125c-.058594 14.136718 11.359374 25.644531 25.496093 25.703125 14.140625.054687 25.644531-11.359375 25.703125-25.5 0-.066407 0-.128907 0-.203125 0-.078125 0-.351563 0-.53125v-112.960938c20.84375-3.328125 40.230469-12.773437 55.695313-27.136718 30.558593-30.566407 29.699219-79.601563 29.644531-81.664063-.109375-4.546875-3.769531-8.207031-8.316406-8.320313-1.957032-.078124-46.378906-.785156-77.023438 25.4375v-19.019531c20.84375-3.328125 40.230469-12.773437 55.695313-27.136719 30.558593-30.566406 29.699219-79.601562 29.644531-81.671874-.105469-4.558594-3.777344-8.226563-8.335938-8.332032-1.953124 0-46.378906-.773437-77.019531 25.449219v-19.242187c20.84375-3.328126 40.230469-12.773438 55.695313-27.136719 30.558594-30.566407 29.695312-79.601563 29.644531-81.671875-.109375-4.550782-3.769531-8.21875-8.320313-8.328125-22.890624-.011719-45.398437 5.867187-65.363281 17.066406-6.882812-18.320313-17.574219-34.96875-31.371093-48.847656-3.296876-3.140625-8.480469-3.140625-11.773438 0-13.8125 13.898437-24.507812 30.574219-31.378906 48.921875-20.007813-11.230469-42.566406-17.132813-65.511719-17.140625-4.550781.105469-8.21875 3.773437-8.328125 8.328125-.0507812 2.070312-.910156 51.105468 29.65625 81.671875 15.503906 14.398437 34.949219 23.855469 55.847656 27.160156v19.371094c-30.648437-26.359375-75.230468-25.601563-77.175781-25.601563-4.550781.109375-8.21875 3.777344-8.328125 8.332032-.0507812 2.070312-.910156 51.105468 29.65625 81.671874 15.503906 14.398438 34.949219 23.855469 55.847656 27.160157v19.167969c-30.648437-26.351563-75.261718-25.628907-77.175781-25.574219zm9.132813 17.421875c14.035156 1.152344 41.976562 5.796875 60.476562 24.289062 18.5 18.488282 23.089844 46.429688 24.265625 60.492188-14.042969-1.152344-41.972656-5.785156-60.472656-24.285156-18.5-18.503907-23.09375-46.433594-24.269531-60.496094zm93.644531 221.6875c-4.691407 0-8.503907-3.789063-8.535157-8.480469v-.050781c1.089844-19.945313-5.996093-39.472656-19.625-54.078125-15.789062-14.054688-36.027343-22.097657-57.15625-22.722657-2.289062.003907-4.480468-.921874-6.074218-2.558593-1.609375-1.570313-2.496094-3.730469-2.460938-5.976563 0-4.710937 3.820313-8.53125 8.535156-8.53125 8.480469.242188 16.90625 1.472656 25.105469 3.660156 13.824219 3.363282 26.75 9.683594 37.894531 18.527344 2.167969 1.707032 4.269532 3.644532 6.230469 5.546875 16.777344 17.621094 25.664063 41.3125 24.617188 65.621094v.511719c0 4.710937-3.820313 8.53125-8.53125 8.53125zm8.53125-71.277344c-3.667969-5.621094-7.910157-10.847656-12.660157-15.589844-1.46875-1.417968-2.9375-2.765625-4.40625-4.0625v-28.824218c3.507813.238281 6.164063.289062 7.597657.289062h1.707031c1.449219 0 4.152344-.050781 7.738281-.300781zm84.984375-150.390625c-1.152344 14.042969-5.792969 41.972656-24.285156 60.476563-18.492188 18.5-46.429688 23.089843-60.492188 24.265624 1.152344-14.035156 5.785156-41.972656 24.285156-60.472656 18.5-18.503906 46.429688-23.09375 60.492188-24.269531zm0-110.738281c-1.152344 14.039062-5.792969 41.976562-24.285156 60.476562-18.492188 18.5-46.429688 23.089844-60.492188 24.269532 1.152344-14.046876 5.785156-41.976563 24.285156-60.476563s46.429688-23.089844 60.492188-24.269531zm-24.285156-50.457032c-18.421876 18.414063-46.429688 23.089844-60.492188 24.269532 1.152344-14.046875 5.785156-41.976563 24.285156-60.476563s46.429688-23.089843 60.492188-24.269531c-1.152344 14.039062-5.792969 41.976562-24.285156 60.476562zm-69.222657-90.929687c10.332031 11.953125 18.078125 25.917969 22.757813 41.007813-.597656.566406-1.226563 1.058593-1.808594 1.648437-9.335938 9.617187-16.507812 21.117187-21.035156 33.730469-4.523438-12.613282-11.691406-24.113282-21.023438-33.730469-.539062-.546875-1.128906-1-1.707031-1.519531 4.703125-15.132813 12.46875-29.136719 22.816406-41.136719zm-93.652343 30.4375c14.035156 1.152344 41.976562 5.785156 60.476562 24.285156s23.089844 46.429688 24.265625 60.492188c-14.042969-1.152344-41.972656-5.792969-60.472656-24.285157-18.5-18.492187-23.09375-46.429687-24.269531-60.492187zm92.707031 102.210937h1.707031c1.449219 0 4.152344 0 7.738281-.289062v37.246094c-3.414062 5.625-6.296875 11.554687-8.609375 17.714844-2.277344-6.070313-5.109375-11.921876-8.457031-17.476563v-37.476563c3.53125.238282 6.1875.28125 7.621094.28125zm-92.707031 8.722657c14.035156 1.152343 41.976562 5.785156 60.476562 24.285156s23.089844 46.429687 24.265625 60.492187c-14.042969-1.152343-41.972656-5.792968-60.472656-24.285156-18.5-18.492187-23.09375-46.429687-24.269531-60.492187zm92.707031 102.210937h1.707031c1.449219 0 4.152344 0 7.738281-.289062v37.058594c-3.417969 5.625-6.300781 11.554687-8.609375 17.714843-2.273437-6.074219-5.105468-11.921875-8.457031-17.476562v-37.289063c3.53125.238282 6.1875.28125 7.621094.28125zm0 0"/><path d="m264.390625 255.824219c-4.546875.109375-8.207031 3.769531-8.316406 8.316406-.054688 2.066406-.914063 51.097656 29.652343 81.664063 15.460938 14.351562 34.835938 23.785156 55.671876 27.105468v112.960938.53125c0 .179687.042968.136718.042968.203125.609375 13.722656 11.941406 24.511719 25.675782 24.457031 13.734374-.054688 24.976562-10.9375 25.480468-24.660156v-.078125c-.984375-15.382813 4.296875-30.507813 14.644532-41.933594 12.597656-10.828125 28.488281-17.074219 45.089843-17.722656 14.136719 0 25.597657-11.460938 25.597657-25.601563 0-14.136718-11.460938-25.597656-25.597657-25.597656-9.910156.238281-19.757812 1.644531-29.339843 4.1875-10.644532 2.722656-20.871094 6.875-30.394532 12.351562v-19.039062c20.902344-3.308594 40.34375-12.761719 55.851563-27.164062 30.554687-30.566407 29.695312-79.597657 29.644531-81.664063-.113281-4.546875-3.773438-8.207031-8.320312-8.316406-1.945313-.078125-46.515626-.785157-77.175782 25.597656v-19.191406c20.902344-3.304688 40.34375-12.761719 55.851563-27.160157 30.554687-30.566406 29.695312-79.601562 29.644531-81.671874-.109375-4.546876-3.761719-8.207032-8.304688-8.332032-1.945312 0-46.472656-.765625-77.191406 25.601563v-19.371094c20.902344-3.304687 40.34375-12.761719 55.851563-27.160156 30.554687-30.566407 29.695312-79.601563 29.644531-81.671875-.109375-4.546875-3.761719-8.207032-8.304688-8.328125-22.949218-.011719-45.511718 5.894531-65.511718 17.148437-6.867188-18.347656-17.5625-35.027344-31.375-48.929687-3.296875-3.136719-8.472656-3.136719-11.769532 0-13.792968 13.878906-24.488281 30.527343-31.367187 48.847656-19.976563-11.183594-42.480469-17.058594-65.375-17.066406-4.550781.105469-8.21875 3.773437-8.328125 8.328125-.050781 2.070312-.910156 51.105468 29.65625 81.671875 15.460938 14.363281 34.839844 23.804687 55.679688 27.136719v19.25c-30.644532-26.230469-75.09375-25.507813-77.023438-25.445313-4.546875.109375-8.207031 3.769531-8.320312 8.320313-.050782 2.070312-.914063 51.105468 29.652343 81.671874 15.464844 14.363282 34.847657 23.808594 55.691407 27.136719v19.054688c-30.628907-26.222657-75.09375-25.492188-77.007813-25.4375zm9.132813 17.421875c14.035156 1.152344 41.976562 5.796875 60.476562 24.289062 18.5 18.488282 23.089844 46.429688 24.265625 60.492188-14.042969-1.152344-41.972656-5.785156-60.472656-24.285156-18.5-18.503907-23.09375-46.433594-24.269531-60.496094zm153.734374 122.941406c8.1875-2.1875 16.601563-3.410156 25.074219-3.652344 4.710938 0 8.53125 3.820313 8.53125 8.53125.03125 2.296875-.898437 4.496094-2.558593 6.078125-1.585938 1.578125-3.734376 2.464844-5.972657 2.457031-21.136719.621094-41.378906 8.667969-57.175781 22.722657-13.628906 14.605469-20.714844 34.132812-19.625 54.078125v.050781c-.015625 4.710937-3.847656 8.523437-8.558594 8.507813-4.714844-.015626-8.523437-3.847657-8.507812-8.558594v-.539063c-1.050782-24.253906 7.792968-47.898437 24.507812-65.507812 2.089844-2.015625 4.179688-3.960938 6.441406-5.746094 11.136719-8.800781 24.046876-15.085937 37.84375-18.421875zm-51.726562 7.96875c-1.496094 1.316406-2.980469 2.5625-4.515625 4.019531-4.703125 4.710938-8.910156 9.890625-12.550781 15.464844v-48.472656c3.589844.25 6.289062.300781 7.746094.300781h1.707031c1.433593 0 4.089843-.050781 7.585937-.289062zm85.136719-130.890625c-1.152344 14.042969-5.792969 41.972656-24.285157 60.476563-18.492187 18.5-46.429687 23.089843-60.492187 24.265624 1.148437-14.035156 5.785156-41.972656 24.285156-60.472656 18.5-18.503906 46.445313-23.09375 60.507813-24.269531zm0-110.738281c-1.152344 14.039062-5.792969 41.976562-24.285157 60.476562-18.492187 18.5-46.429687 23.089844-60.492187 24.269532 1.148437-14.046876 5.785156-41.976563 24.285156-60.476563s46.445313-23.089844 60.507813-24.269531zm-24.285157-50.457032c-18.425781 18.414063-46.429687 23.089844-60.492187 24.269532 1.148437-14.046875 5.785156-41.976563 24.285156-60.476563s46.429688-23.089843 60.492188-24.269531c-1.136719 14.039062-5.777344 41.976562-24.269531 60.476562zm-69.386718-90.929687c10.363281 11.996094 18.125 26.007813 22.800781 41.15625-.554687.519531-1.132813.972656-1.707031 1.515625-9.335938 9.617188-16.507813 21.117188-21.03125 33.734375-4.523438-12.617187-11.695313-24.117187-21.027344-33.734375-.589844-.585938-1.222656-1.082031-1.816406-1.644531 4.710937-15.089844 12.464844-29.054688 22.78125-41.027344zm-93.472656 30.4375c14.035156 1.152344 41.976562 5.785156 60.476562 24.285156s23.089844 46.429688 24.265625 60.492188c-14.042969-1.152344-41.972656-5.792969-60.472656-24.285157-18.5-18.492187-23.09375-46.429687-24.269531-60.492187zm92.707031 102.210937h1.707031c1.433594 0 4.085938 0 7.585938-.28125v37.476563c-3.351563 5.554687-6.183594 11.40625-8.457032 17.476563-2.304687-6.160157-5.183594-12.09375-8.601562-17.714844v-37.246094c3.609375.246094 6.304687.289062 7.765625.289062zm-92.707031 8.722657c14.035156 1.152343 41.976562 5.785156 60.476562 24.285156s23.089844 46.429687 24.265625 60.492187c-14.042969-1.152343-41.972656-5.792968-60.472656-24.285156-18.5-18.492187-23.09375-46.429687-24.269531-60.492187zm92.707031 102.210937h1.707031c1.433594 0 4.085938 0 7.585938-.28125v37.289063c-3.351563 5.554687-6.183594 11.402343-8.457032 17.476562-2.300781-6.164062-5.183594-12.09375-8.601562-17.714843v-37.058594c3.609375.246094 6.304687.289062 7.765625.289062zm0 0"/></svg>