<svg height="512pt" viewBox="-36 0 512 512.02797" width="512pt" xmlns="http://www.w3.org/2000/svg"><path d="m207.503906 120.519531c-1.722656-3.457031-3.148437-7.054687-4.265625-10.753906v-.085937c-2.15625-7.09375-3.613281-14.382813-4.355469-21.757813 0-.085937 0-.085937-.082031-.171875-.519531-5.046875-.777343-10.117188-.769531-15.1875 0-30.722656 9.558594-56.664062 22.613281-64 13.054688 7.335938 22.613281 33.277344 22.613281 64 .386719 16.484375-2.84375 32.855469-9.472656 47.957031zm0 0" fill="#fdd834"/><path d="m178.0625 130.929688c-11.265625-11.296876-20.070312-24.808594-25.855469-39.679688-11.777343-28.417969-12.886719-55.980469-3.667969-67.753906 14.847657 1.789062 33.621094 22.101562 45.394532 50.515625 1.902344 4.542969 3.554687 9.1875 4.949218 13.910156 2.148438 7.097656 3.605469 14.382813 4.355469 21.757813.402344 3.828124.515625 7.679687.339844 11.523437zm0 0" fill="#d84315"/><path d="m266.726562 133.0625c12.589844-11.539062 22.320313-25.855469 28.414063-41.8125 11.777344-28.417969 12.886719-55.980469 3.585937-67.753906-14.765624 1.789062-33.539062 22.101562-45.3125 50.515625-6.773437 15.332031-10.066406 31.972656-9.644531 48.726562zm0 0" fill="#d84315"/><path d="m237.710938 375.324219v119.636719c0 4.714843-3.820313 8.535156-8.53125 8.535156h-17.070313c-4.710937 0-8.53125-3.820313-8.53125-8.535156v-119.636719zm0 0" fill="#8bc34a"/><path d="m203.578125 465.804688s-76.800781-34.136719-136.535156-34.136719c-42.988281 0-55.039063 39.777343-58.417969 62.074219-.445312 2.96875.707031 5.953124 3.039062 7.847656 2.328126 1.890625 5.488282 2.414062 8.300782 1.367187 24.039062-8.847656 82.917968-24.140625 183.613281-11.554687zm0 0" fill="#558b30"/><path d="m237.710938 435.226562s76.800781-34.132812 136.535156-34.132812c42.988281 0 55.039062 39.773438 58.417968 62.082031.445313 2.964844-.714843 5.949219-3.042968 7.839844s-5.484375 2.410156-8.296875 1.367187c-23.996094-8.875-82.917969-24.140624-183.613281-11.554687zm0 0" fill="#558b30"/><path d="m233.785156 289.136719c6.628906 15.101562 9.859375 31.472656 9.472656 47.957031 0 30.722656-9.558593 56.664062-22.613281 64-13.054687-7.335938-22.613281-33.277344-22.613281-64-.023438-5.132812.261719-10.261719.851562-15.359375.742188-7.378906 2.199219-14.664063 4.355469-21.757813 1.117188-3.726562 2.542969-7.351562 4.265625-10.839843zm0 0" fill="#fdd834"/><path d="m266.726562 276.59375c12.589844 11.539062 22.320313 25.855469 28.414063 41.8125 11.777344 28.417969 12.886719 55.980469 3.585937 67.753906-14.765624-1.789062-33.539062-22.101562-45.3125-50.515625-6.773437-15.332031-10.066406-31.972656-9.644531-48.726562zm0 0" fill="#d84315"/><path d="m152.378906 153.628906c-14.378906-6.144531-27.378906-15.113281-38.230468-26.367187-21.761719-21.761719-33.28125-46.851563-29.269532-61.1875 14.421875-4.007813 39.507813 7.511719 61.183594 29.269531 11.433594 11.007812 20.515625 24.21875 26.710938 38.828125zm0 0" fill="#fdd834"/><path d="m290.105469 254.320312c16.347656 5.84375 31.082031 15.460938 43.007812 28.074219 21.761719 21.761719 33.367188 46.847657 29.355469 61.183594-14.421875 4.011719-39.507812-7.507813-61.269531-29.265625-12.421875-11.804688-21.941407-26.320312-27.820313-42.414062zm0 0" fill="#fdd834"/><path d="m137.699219 184.859375c-15.457031-.304687-30.707031-3.636719-44.882813-9.8125-28.417968-11.777344-48.726562-30.464844-50.519531-45.3125 11.777344-9.214844 39.425781-8.191406 67.839844 3.585937 14.496093 5.71875 27.71875 14.246094 38.914062 25.085938zm0 0" fill="#d84315"/><path d="m303.503906 225.136719c17.519532-.917969 35.007813 2.328125 51.027344 9.472656 28.417969 11.777344 48.640625 30.464844 50.433594 45.3125-11.777344 9.214844-39.339844 8.191406-67.753906-3.585937-16.257813-6.21875-30.820313-16.1875-42.496094-29.097657zm0 0" fill="#d84315"/><path d="m136.589844 219.25c-14.382813 5.699219-29.753906 8.484375-45.226563 8.191406-30.71875 0-56.660156-9.558594-64-22.613281 7.339844-13.054687 33.28125-22.613281 64-22.613281 15.472657-.292969 30.84375 2.492187 45.226563 8.191406zm0 0" fill="#fdd834"/><path d="m305.125 216.519531c15.789062 7.695313 33.214844 11.445313 50.773438 10.921875 30.804687 0 56.660156-9.558594 64-22.613281-7.339844-13.054687-33.195313-22.613281-64-22.613281-17.558594-.523438-34.984376 3.226562-50.773438 10.921875zm0 0" fill="#fdd834"/><path d="m137.699219 224.796875c-15.457031.304687-30.707031 3.636719-44.882813 9.8125-28.417968 11.777344-48.726562 30.464844-50.519531 45.3125 11.777344 9.214844 39.425781 8.191406 67.839844-3.585937 14.496093-5.71875 27.71875-14.246094 38.914062-25.085938zm0 0" fill="#d84315"/><path d="m303.503906 184.519531c17.519532.917969 35.007813-2.328125 51.027344-9.472656 28.417969-11.777344 48.640625-30.464844 50.433594-45.3125-11.777344-9.214844-39.339844-8.191406-67.753906 3.585937-16.257813 6.21875-30.820313 16.1875-42.496094 29.097657zm0 0" fill="#d84315"/><path d="m152.378906 256.027344c-14.378906 6.144531-27.378906 15.109375-38.230468 26.367187-21.761719 21.761719-33.28125 46.847657-29.269532 61.183594 14.421875 4.011719 39.507813-7.507813 61.183594-29.265625 11.433594-11.011719 20.515625-24.21875 26.710938-38.828125zm0 0" fill="#fdd834"/><path d="m290.105469 155.335938c16.347656-5.84375 31.082031-15.460938 43.007812-28.074219 21.761719-21.761719 33.367188-46.851563 29.355469-61.1875-14.421875-4.007813-39.507812 7.511719-61.269531 29.269531-12.421875 11.800781-21.941407 26.316406-27.820313 42.414062zm0 0" fill="#fdd834"/><path d="m203.578125 288.453125c.175781 3.84375.0625 7.695313-.339844 11.523437v.167969c-.753906 7.238281-2.210937 14.382813-4.355469 21.335938.085938.082031 0 .167969 0 .253906-1.394531 4.722656-3.046874 9.367187-4.949218 13.910156-11.773438 28.414063-30.546875 48.726563-45.394532 50.515625-9.21875-11.773437-8.109374-39.335937 3.667969-67.753906 5.785157-14.871094 14.589844-28.382812 25.855469-39.679688zm0 0" fill="#d84315"/><path d="m305.976562 204.828125c0 47.128906-38.203124 85.332031-85.332031 85.332031-47.128906 0-85.332031-38.203125-85.332031-85.332031s38.203125-85.332031 85.332031-85.332031c47.128907 0 85.332031 38.203125 85.332031 85.332031zm0 0" fill="#ffb301"/><path d="m271.84375 204.828125c0 28.277344-22.921875 51.199219-51.199219 51.199219-28.277343 0-51.199219-22.921875-51.199219-51.199219s22.921876-51.199219 51.199219-51.199219c28.277344 0 51.199219 22.921875 51.199219 51.199219zm0 0" fill="#ffb301"/><path d="m246.246094 204.828125c0-28.277344-17.195313-51.199219-38.402344-51.199219s-38.398438 22.921875-38.398438 51.199219 17.191407 51.199219 38.398438 51.199219 38.402344-22.921875 38.402344-51.199219zm0 0" fill="#fdd834"/><path d="m280.378906 204.828125c0-32.988281-26.746094-59.734375-59.734375-59.734375s-59.734375 26.746094-59.734375 59.734375 26.746094 59.734375 59.734375 59.734375c32.972657-.039062 59.695313-26.761719 59.734375-59.734375zm-102.402344 0c0-23.5625 19.105469-42.667969 42.667969-42.667969s42.667969 19.105469 42.667969 42.667969-19.105469 42.667969-42.667969 42.667969c-23.550781-.03125-42.636719-19.117188-42.667969-42.667969zm0 0"/><path d="m374.246094 392.5625c-47.394532 0-103.792969 20.238281-128 29.867188v-46.328126c2.488281-8.226562 4.125-16.683593 4.878906-25.242187 12.867188 24.746094 30.722656 41.8125 46.574219 43.777344.339843.039062.683593.058593 1.027343.058593 2.609376-.003906 5.078126-1.199218 6.707032-3.242187 9.316406-11.804687 10.238281-34.332031 3.410156-59.058594 13.304688 11.652344 29.941406 18.816407 47.550781 20.476563 2.816407.027344 5.625-.335938 8.34375-1.074219 2.894531-.785156 5.160157-3.035156 5.972657-5.921875 4.046874-14.445312-3.746094-35.632812-19.625-55.859375 9.726562 2.839844 19.785156 4.375 29.917968 4.566406 10.339844.601563 20.589844-2.1875 29.199219-7.945312 2.355469-1.839844 3.574219-4.773438 3.21875-7.738281-1.808594-14.917969-17.066406-31.507813-39.398437-44.136719 25.460937-3.128907 45.917968-12.636719 53.296874-25.753907 1.460938-2.59375 1.460938-5.765624 0-8.359374-7.378906-13.117188-27.835937-22.625-53.289062-25.753907 22.316406-12.628906 37.546875-29.21875 39.390625-44.136719.355469-2.964843-.863281-5.898437-3.21875-7.738281-11.867187-9.292969-34.40625-10.242187-59.109375-3.414062 15.828125-20.234375 23.621094-41.402344 19.574219-55.851563-.8125-2.886718-3.078125-5.132812-5.972657-5.921875-14.507812-4.042969-35.703124 3.722657-55.917968 19.5 6.878906-24.746093 5.921875-47.335937-3.414063-59.152343-1.851562-2.332032-4.777343-3.535157-7.730469-3.183594-15.863281 1.929687-33.699218 19.019531-46.574218 43.773437-2.5625-27.507812-12.433594-49.875-26.300782-57.675781-2.597656-1.457031-5.765624-1.457031-8.363281 0-12.363281 6.945312-21.5625 25.480469-25.214843 48.898438-12.28125-19.945313-27.734376-33.28125-41.6875-34.988282-2.964844-.355468-5.898438.863282-7.738282 3.21875-9.285156 11.84375-10.1875 34.421875-3.292968 59.160156-20.191407-15.828124-41.421876-23.601562-55.9375-19.542968-2.875.800781-5.125 3.046875-5.929688 5.921875-4.046875 14.507812 3.703125 35.621093 19.472656 55.816406-24.695312-6.824219-47.230468-5.859375-59.101562 3.414063-2.351563 1.839843-3.574219 4.777343-3.21875 7.742187 1.800781 14.898437 17.066406 31.488281 39.46875 44.125-25.488282 3.121094-45.976563 12.636719-53.359375 25.761719-1.460938 2.597656-1.460938 5.765625 0 8.363281 7.382812 13.125 27.871093 22.636719 53.351562 25.761719-22.359375 12.636718-37.660156 29.226562-39.460937 44.125-.355469 2.964844.867187 5.902344 3.21875 7.742187 8.621094 5.761719 18.890625 8.554688 29.242187 7.953125 10.113281-.191406 20.15625-1.722656 29.867188-4.550781-15.777344 20.207031-23.527344 41.363281-19.480469 55.835937.804688 2.875 3.054688 5.121094 5.929688 5.921876 2.730468.738281 5.546874 1.097656 8.371093 1.074218 17.609375-1.648437 34.246094-8.816406 47.539063-20.480468-6.824219 24.703124-5.972656 47.242187 3.320312 59.066406 1.617188 2.066406 4.09375 3.277344 6.714844 3.277344.34375.003906.683594-.019532 1.023438-.058594 13.953124-1.707032 29.40625-15.054688 41.6875-34.988282.890624 5.566407 2.183593 11.058594 3.863281 16.4375v76.917969c-24.207031-9.652343-80.605469-29.867187-128-29.867187-35.839844 0-60.183594 25.269531-66.847657 69.335937-.71875 4.882813.71875 9.839844 3.933594 13.585938 3.214844 3.75 7.894532 5.917969 12.832032 5.953125 2.039062-.003906 4.0625-.367188 5.976562-1.074219 24.746094-9.148437 79.664062-22.527344 172.6875-11.871094 1.886719 7.578125 8.675781 12.910157 16.484375 12.945313h17.070313c9.425781 0 17.066406-7.640625 17.066406-17.066406v-26.503907c92.660156-10.53125 147.480468 2.808594 172.117187 11.945313 1.910157.707031 3.933594 1.074218 5.972657 1.078125 4.941406-.035157 9.628906-2.210938 12.84375-5.960938 3.214843-3.753906 4.648437-8.71875 3.921874-13.609375-6.671874-44.082031-31.015624-69.347656-66.855468-69.347656zm-230.402344-187.734375c0-42.414063 34.386719-76.800781 76.800781-76.800781 42.414063 0 76.800781 34.386718 76.800781 76.800781s-34.386718 76.800781-76.800781 76.800781c-42.394531-.046875-76.753906-34.40625-76.800781-76.800781zm62.722656 132.265625c-.019531-4.71875.238282-9.4375.773438-14.128906 2.054687-6.878906 3.480468-13.925782 4.269531-21.0625.390625-1.238282.808594-2.441406 1.246094-3.601563 2.558593.214844 5.167969.394531 7.804687.394531 2.636719 0 5.121094-.179687 7.621094-.382812 4.421875 12.445312 6.605469 25.574219 6.445312 38.78125 0 25.34375-6.683593 44.613281-14.082031 53.019531-7.398437-8.40625-14.078125-27.675781-14.078125-53.019531zm87.976563 38.914062c-10.027344-4.960937-23.542969-20.207031-33.238281-43.605468-5.324219-12.46875-8.359376-25.792969-8.957032-39.339844 4.5625-1.605469 8.992188-3.566406 13.25-5.863281 9.296875 10.050781 16.644532 21.738281 21.667969 34.476562 9.691406 23.414063 10.894531 43.75 7.277344 54.332031zm12.6875-67.730468c-10-9.683594-18.085938-21.167969-23.832031-33.851563 3.460937-3.074219 6.691406-6.394531 9.667968-9.941406 12.765625 5.742187 24.3125 13.878906 34.015625 23.96875 17.917969 17.921875 26.84375 36.226563 27.605469 47.371094-11.164062-.761719-29.5625-9.652344-47.457031-27.546875zm87.570312-32.5625c-10.632812 3.601562-30.992187 2.40625-54.3125-7.253906-13.1875-5.195313-25.253906-12.875-35.542969-22.621094 1.972657-3.976563 3.65625-8.089844 5.035157-12.304688 14.214843.277344 28.242187 3.320313 41.292969 8.957032 23.355468 9.6875 38.578124 23.1875 43.527343 33.222656zm-38.902343-56.808594c-14.261719.289062-28.441407-2.246094-41.71875-7.457031.152343-2.199219.332031-4.386719.332031-6.621094s-.179688-4.421875-.332031-6.621094c13.277343-5.210937 27.457031-7.746093 41.71875-7.460937 25.335937 0 44.601562 6.683594 53.015624 14.082031-8.414062 7.398437-27.679687 14.078125-53.015624 14.078125zm38.902343-84.964844c-4.949219 10.035156-20.164062 23.535156-43.519531 33.210938-13.058594 5.644531-27.089844 8.691406-41.308594 8.96875-1.382812-4.214844-3.066406-8.328125-5.035156-12.304688 10.285156-9.746094 22.347656-17.421875 35.53125-22.613281 23.367188-9.675781 43.71875-10.871094 54.332031-7.261719zm-67.738281-12.699218c-9.703125 10.0625-21.242188 18.171874-33.996094 23.894531-2.976562-3.542969-6.207031-6.867188-9.667968-9.941407 5.746093-12.683593 13.832031-24.167968 23.832031-33.851562 17.921875-17.917969 36.25-26.792969 47.457031-27.519531-.761719 11.179687-9.6875 29.457031-27.625 47.417969zm-32.519531-87.59375c3.617187 10.582031 2.414062 30.917968-7.277344 54.339843-5.023437 12.734375-12.371094 24.421875-21.667969 34.46875-4.257812-2.296875-8.6875-4.257812-13.25-5.863281.597656-13.535156 3.628906-26.851562 8.949219-39.3125 9.695313-23.417969 23.21875-38.675781 33.246094-43.632812zm-73.898438-14.105469c7.398438 8.40625 14.082031 27.675781 14.082031 53.019531.152344 13.207031-2.035156 26.339844-6.460937 38.78125-2.5-.203125-5.0625-.382812-7.621094-.382812-2.558593 0-5.121093.179687-7.679687.382812-.460938-1.175781-1.023438-2.269531-1.40625-3.496094-.804688-7.378906-2.265625-14.671875-4.371094-21.785156-.433594-4.488281-.640625-8.992188-.621094-13.5 0-25.34375 6.679688-44.613281 14.078125-53.019531zm-67.890625 14.113281c10.058594 4.960938 23.601563 20.21875 33.28125 43.640625 1.699219 4.101563 3.191406 8.289063 4.460938 12.542969.789062 7.183594 2.214844 14.28125 4.265625 21.207031.113281 1.210937.050781 2.390625.105469 3.601563-5.148438 1.480468-10.15625 3.40625-14.96875 5.75-8.390626-9.609376-15.085938-20.574219-19.804688-32.425782-9.695312-23.371094-10.925781-43.707031-7.339844-54.316406zm-12.722656 67.722656c8.9375 8.804688 16.402344 18.992188 22.109375 30.164063-4.359375 3.503906-8.394531 7.382812-12.066406 11.597656-11.078125-5.636719-21.167969-13.035156-29.867188-21.914063-17.917969-17.917968-26.792969-36.207031-27.527343-47.375 11.179687.722657 29.507812 9.625 47.351562 27.527344zm-87.570312 32.5625c10.648437-3.617187 31.027343-2.421875 54.417968 7.261719 11.34375 4.621094 21.898438 10.984375 31.28125 18.859375-2.765625 5.089844-5.050781 10.425781-6.824218 15.941406-12.144532-1.105468-24.046876-4.089844-35.277344-8.84375-23.390625-9.699218-38.640625-23.199218-43.597656-33.21875zm38.902343 56.804688c12.15625-.113282 24.25 1.695312 35.839844 5.351562-.246094 2.886719-.425781 5.785156-.425781 8.730469s.179687 5.84375.445312 8.730469c-11.589844 3.65625-23.6875 5.464844-35.839844 5.347656-25.335937 0-44.605468-6.679688-53.019531-14.078125 8.398438-7.398437 27.664063-14.082031 53-14.082031zm-38.902343 84.96875c4.957031-10.019532 20.207031-23.519532 43.605468-33.210938 11.230469-4.769531 23.132813-7.753906 35.285156-8.84375 1.78125 5.511719 4.066407 10.84375 6.828126 15.933594-9.386719 7.878906-19.945313 14.238281-31.292969 18.859375-23.414063 9.691406-43.800781 10.878906-54.425781 7.261719zm67.722656 12.714844c8.699218-8.878907 18.785156-16.28125 29.863281-21.914063 3.671875 4.214844 7.710937 8.09375 12.066406 11.597656-5.714843 11.175781-13.179687 21.367188-22.117187 30.179688-17.835938 17.921875-36.164063 26.789062-47.367188 27.511719.757813-11.167969 9.660156-29.480469 27.554688-47.351563zm32.570312 87.570312c-3.585937-10.609375-2.347656-30.945312 7.347656-54.351562 4.71875-11.851563 11.410157-22.8125 19.796876-32.425782 4.8125 2.34375 9.820312 4.269532 14.96875 5.75-.054688 1.265625 0 2.492188-.113282 3.765625-2 6.816407-3.398437 13.800781-4.179687 20.863281 0 .160157-.085938.324219-.113281.484376-1.261719 4.15625-2.734376 8.246093-4.410157 12.253906-9.695312 23.453125-23.238281 38.699218-33.296875 43.660156zm-135.6875 119.019531c3.789063-25.007812 15.527344-54.816406 49.976563-54.816406 48.742187 0 110.355469 23.953125 128 31.257813v10.402343c-95.058594-10.53125-152.148438 3.507813-177.976563 13.15625zm195.042969-.058593v-89.652344c1.351563 1.207031 2.808594 2.285156 4.355469 3.226562 2.59375 1.460938 5.765625 1.460938 8.359375 0 1.546875-.941406 3.003906-2.019531 4.355469-3.226562v89.652344zm34.136719-43.664063v-10.410156c17.644531-7.304688 79.257812-31.257813 128-31.257813 34.449218 0 46.191406 29.816406 50.039062 54.75-25.898437-9.574218-82.96875-23.605468-178.039062-13.082031zm0 0"/></svg>