<svg height="512pt" viewBox="0 0 512.102 512" width="512pt" xmlns="http://www.w3.org/2000/svg"><path d="m353.640625 232.550781 48.296875 48.300781c6.703125 6.699219 6.703125 17.5 0 24.097657-6.699219 6.703125-17.5 6.703125-24.097656 0l-48.300782-48.296875c-6.699218-6.703125-6.699218-17.5 0-24.101563 6.699219-6.601562 17.5-6.601562 24.101563 0zm0 0" fill="#9d27b0"/><path d="m365.738281 196.351562 72.402344 72.398438c6.699219 6.699219 6.699219 17.5 0 24.101562-6.703125 6.699219-17.5 6.699219-24.101563 0l-72.398437-72.402343c-6.703125-6.699219-6.703125-17.5 0-24.097657 6.597656-6.601562 17.5-6.601562 24.097656 0zm0 0" fill="#6a1b9a"/><path d="m450.238281 136.050781 48.300781 48.300781c6.699219 6.699219 6.699219 17.5 0 24.097657-6.699218 6.703125-17.5 6.703125-24.101562 0l-48.296875-48.296875c-6.703125-6.703125-6.703125-17.5 0-24.101563 6.597656-6.699219 17.398437-6.699219 24.097656 0zm0 0" fill="#9d27b0"/><path d="m414.039062 148.152344 72.398438 72.398437c6.703125 6.699219 6.703125 17.5 0 24.101563-6.699219 6.699218-17.5 6.699218-24.097656 0l-72.402344-72.402344c-6.699219-6.699219-6.699219-17.5 0-24.097656 6.601562-6.703125 17.402344-6.703125 24.101562 0zm0 0" fill="#6a1b9a"/><path d="m377.839844 160.152344 96.5 96.5c6.699218 6.699218 6.699218 17.5 0 24.097656-6.699219 6.699219-17.5 6.699219-24.101563 0l-96.5-96.5c-6.699219-6.699219-6.699219-17.5 0-24.097656 6.601563-6.601563 17.402344-6.601563 24.101563 0zm0 0" fill="#9d27b0"/><path d="m174.738281 496.050781c-10 10-26.199219 10-36.199219 0s-10-26.199219 0-36.199219l197-197 36.199219 36.199219zm0 0" fill="#795548"/><path d="m252.738281 85.449219c-.597656 0-1.097656-.398438-1.097656-1 0-.597657.398437-1 1-1 .597656 0 1 .402343 1 1 0 .601562-.300781 1-.902344 1zm0 0"/><path d="m322.9375 213.351562c-.296875 23.199219-2.699219 46.398438-7.199219 69.199219l-118.5 118.601563h-117.800781c-9.5 0-18.296875-5.300782-22.699219-13.703125-25.800781-54.398438-39.800781-113.699219-41-174-.898437-27.5 5-54.796875 17.300781-79.398438l121.101563-87.800781 16.597656-12 134.902344 99.800781c12.296875 24.601563 18.199219 51.898438 17.296875 79.300781zm0 0" fill="#ffb301"/><path d="m290.140625 213.351562c-.300781 23.199219-2.703125 46.398438-7.203125 69.199219l-118.5 118.601563h-85c-9.5 0-18.296875-5.300782-22.699219-13.703125-25.800781-54.398438-39.800781-113.699219-41-174-.898437-27.5 5-54.796875 17.300781-79.398438l121.101563-87.800781 118.699219 87.800781c12.300781 24.601563 18.199218 51.898438 17.300781 79.300781zm0 0" fill="#fdd834"/><path d="m271.738281 34.152344v25.597656c0 7.101562-3 13.902344-8.199219 18.800781-4.699218 4.398438-11 6.800781-17.398437 6.800781h-153.601563c-2.800781 0-5.601562-.5-8.199218-1.402343-3.402344-1.199219-6.5-3-9.101563-5.5h-.097656c-5.203125-4.796875-8.203125-11.597657-8.203125-18.796875v-25.5c0-14.101563 11.5-25.601563 25.601562-25.601563h153.601563c14.097656 0 25.597656 11.5 25.597656 25.601563zm0 0" fill="#6a1b9a"/><path d="m238.9375 34.152344v25.597656c.101562 6.902344-2.296875 13.601562-6.796875 18.800781-2.101563 2.398438-4.703125 4.199219-7.703125 5.5-2.199219.898438-4.5 1.300781-6.796875 1.398438h-128c-2.300781 0-4.703125-.5-6.800781-1.398438-2.902344-1.199219-5.5-3.101562-7.601563-5.5h-.097656c-4.5-5.199219-6.902344-11.898437-6.800781-18.800781v-25.597656c-1.101563-12.902344 8.398437-24.300782 21.300781-25.601563h128c12.898437 1.300781 22.398437 12.699219 21.296875 25.601563zm0 0" fill="#9d27b0"/><path d="m318.039062 139.351562-12.5-5.402343-33.898437-14.5c-1.402344-13.5-7.601563-26.097657-17.402344-35.5 3.402344-1.199219 6.5-3 9.199219-5.5 22 3.601562 58.300781 15 66.300781 51.203125.699219 3.097656-.398437 6.398437-2.898437 8.398437-2.402344 2.199219-5.800782 2.601563-8.800782 1.300781zm0 0" fill="#9d27b0"/><path d="m271.738281 119.550781-13.699219 34c-.898437 2.199219-2.601562 4-4.898437 4.800781-2.203125.800782-4.703125.699219-6.800781-.402343l-42.902344-21.398438c-.597656-17.199219-2.796875-34.398437-6.597656-51.199219h49.199218c2.800782 0 5.601563-.5 8.199219-1.402343 9.902344 9.5 16.101563 22.101562 17.5 35.601562zm0 0" fill="#6a1b9a"/><path d="m203.4375 136.550781-28.199219 28.101563c-3.300781 3.296875-8.699219 3.296875-12 0l-28.097656-28.101563c.597656-17.199219 2.796875-34.398437 6.597656-51.199219h55.101563c3.800781 16.898438 6 34 6.597656 51.199219zm0 0" fill="#9d27b0"/><path d="m141.738281 85.351562c-3.800781 16.800782-6 34-6.597656 51.199219l-42.902344 21.5c-2.097656 1.101563-4.597656 1.199219-6.800781.398438-2.199219-.796875-4-2.597657-4.898438-4.796875l-13.699218-34h.097656c1.402344-13.601563 7.601562-26.203125 17.402344-35.601563 2.597656.898438 5.398437 1.398438 8.199218 1.398438h49.199219zm0 0" fill="#6a1b9a"/><path d="m84.339844 84.050781c-9.800782 9.398438-16 22-17.402344 35.5h-.097656l-33.800782 14.5-12.5 5.398438c-2.898437 1.300781-6.398437.800781-8.800781-1.199219-2.5-2-3.597656-5.300781-2.898437-8.398438 8-36.199218 44.300781-47.601562 66.300781-51.199218h.097656c2.601563 2.296875 5.699219 4.199218 9.101563 5.398437zm0 0" fill="#9d27b0"/><path d="m471.4375 405.152344c4.800781 9.199218 4.902344 20.199218.203125 29.5-4.703125 9.296875-13.601563 15.796875-23.902344 17.398437-2.597656.300781-5.300781.300781-8 0-10.300781-1.601562-19.199219-8.101562-23.898437-17.398437-4.699219-9.300782-4.601563-20.300782.199218-29.5l23.800782-47.601563c.699218-1.398437 2.199218-2.398437 3.800781-2.398437 1.597656 0 3.097656.898437 3.796875 2.398437l16.703125 33.398438.097656.101562zm0 0" fill="#fdd834"/><path d="m456.238281 130.050781c-6-6-14.597656-8.601562-23-7-8.300781 1.601563-15.300781 7.300781-18.699219 15.101563-6.300781-3.703125-13.898437-4.402344-20.800781-2.101563-6.898437 2.300781-12.5 7.5-15.398437 14.199219-10-5.800781-22.699219-4.097656-30.800782 4.101562-8.199218 8.199219-9.800781 20.898438-3.898437 30.800782-3 1.199218-5.800781 3-8.101563 5.296875-1.898437 2-3.5 4.300781-4.699218 6.800781-.902344-16.597656-4.101563-32.898438-9.601563-48.597656 4 .097656 8-1.300782 11.101563-3.800782 4.898437-4 7.097656-10.5 5.699218-16.699218-7.699218-34.601563-37.300781-49-60.5-55.101563 1.699219-4.101562 2.601563-8.601562 2.699219-13.101562v-25.796875c0-18.902344-15.300781-34.1015628-34.097656-34.1015628h-153.601563c-18.898437 0-34.199218 15.3007808-34.199218 34.1015628v25.597656c0 4.5.898437 8.902344 2.597656 13.101562-23.199219 6-52.796875 20.5-60.5 55-1.199219 5.097657.101562 10.398438 3.402344 14.398438 3.300781 4 8.300781 6.300781 13.5 6.199219-7.101563 20.902343-10.5 42.902343-10.199219 64.902343 1.199219 61.597657 15.5 122.300782 42 177.898438 5.796875 11.300781 17.5 18.402344 30.296875 18.402344h97.203125l-44.101563 44.097656c-13.300781 13.300781-13.300781 34.902344 0 48.300781 13.300782 13.300781 34.898438 13.300781 48.300782 0l191-191c6 6 14.597656 8.699219 23 7.101563 8.398437-1.601563 15.300781-7.300782 18.699218-15.101563 6.300782 3.699219 13.898438 4.5 20.800782 2.199219 6.898437-2.300781 12.5-7.5 15.398437-14.199219 10 5.800781 22.699219 4.199219 30.800781-3.898437 8.199219-8.203125 9.800782-20.800782 4-30.800782 6.699219-2.800781 11.898438-8.402343 14.199219-15.402343s1.5-14.5-2.199219-20.898438c7.800782-3.300781 13.398438-10.300781 15.101563-18.699219 1.597656-8.300781-1-16.902343-7-22.902343zm-24.097656 12c1.597656-1.601562 3.796875-2.5 6-2.5 2.296875 0 4.398437.898438 6 2.5l48.296875 48.300781c3.203125 3.300782 3.203125 8.699219-.097656 12-3.300782 3.300782-8.601563 3.300782-12 .097657l-48.300782-48.296875c-3.199218-3.300782-3.199218-8.703125.101563-12.101563zm-36.203125 12.101563c3.300781-3.300782 8.703125-3.300782 12.101562 0l72.398438 72.398437c3.300781 3.300781 3.300781 8.699219 0 12.101563-3.398438 3.199218-8.699219 3.199218-12.097656 0l-72.402344-72.402344c-3.296875-3.398438-3.296875-8.800781 0-12.097656zm-64.296875 67.097656c-.101563.101562-.300781.101562-.402344.199219v-.898438c.101563.199219.300781.5.402344.699219zm-10.203125-89.699219-41.699219-17.898437c-1.699219-9.203125-5.597656-17.902344-11.199219-25.402344 19.398438 4.199219 46.699219 15.101562 52.898438 43.300781zm-234-38.101562c1.703125.300781 3.300781.5 5 .5h38.902344c-2.402344 12.300781-3.902344 24.800781-4.601563 37.300781l-38.300781 19.101562-12.898438-32.199218c1.398438-9.300782 5.601563-17.902344 11.898438-24.703125zm61.300781.5h41.101563c2.597656 12.902343 4.300781 26.101562 4.898437 39.300781l-25.5 25.5-25.5-25.5c.699219-13.300781 2.402344-26.398438 5-39.300781zm63.101563 37.300781c-.699219-12.5-2.199219-25-4.601563-37.300781h38.902344c1.699219 0 3.398437-.199219 5-.5 6.398437 6.902343 10.5 15.5 11.898437 24.703125l-12.898437 32.199218zm-136.402344-97.097656c0-9.402344 7.601562-17.101563 17.101562-17.101563h153.601563c9.398437 0 17.097656 7.601563 17.097656 17.101563v25.597656c0 9.402344-7.597656 17.101562-17.097656 17.101562h-153.601563c-9.398437 0-17.101562-7.601562-17.101562-17.101562zm-5.398438 54.097656c-5.601562 7.5-9.5 16.199219-11.199218 25.402344l-41.699219 17.898437c6.296875-28.199219 33.5-39.101562 52.898437-43.300781zm9.398438 304.300781c-6.296875 0-12.199219-3.5-15.097656-9.101562-25.101563-53.296875-38.800782-111.199219-40.101563-170.097657-.800781-25.101562 4.402344-50 15-72.800781l22.902344-9.800781 10.398437 25.902344c1.699219 4.5 5.300782 8 9.699219 9.699218 4.5 1.699219 9.402344 1.5 13.699219-.699218l37.402344-18.703125 23.800781 23.703125c3.199219 3.199218 7.5 5 12.097656 5 4.5 0 8.902344-1.800782 12.101563-5l23.699218-23.703125 37.300782 18.601562c4.300781 2.199219 9.199218 2.5 13.699218.800781 4.5-1.699218 8.101563-5.199218 9.800782-9.601562l10.398437-26 23 9.902344c10.601563 22.699218 15.800781 47.597656 15.101563 72.699218-.300782 21.898438-2.5 43.597657-6.601563 65.097657l-114 114.101562zm89.300781 97.398438c-6.699219 6.703125-17.5 6.703125-24.097656 0-6.703125-6.699219-6.703125-17.5 0-24.097657l58.699219-58.699218.097656-.101563 132.300781-132.300781 24.199219 24.199219zm227.199219-191c-3.398438 3.203125-8.699219 3.203125-12.097656 0l-6-6-18.101563-18.097657-24.097656-24.101562c-3.300781-3.300781-3.300781-8.699219 0-12.097656 3.296875-3.300782 8.699219-3.300782 12.097656 0l48.300781 48.296875c3.300782 3.300781 3.199219 8.703125-.101562 12zm36.203125-12c-3.402344 3.203125-8.703125 3.203125-12.101563 0l-12-12.097657-48.300781-48.300781-12.097656-12.101562c-3.300781-3.296875-3.300781-8.699219 0-12.097657 3.398437-3.199218 8.699219-3.199218 12.097656 0l72.402344 72.398438c1.597656 1.601562 2.5 3.800781 2.5 6s-.902344 4.601562-2.5 6.199219zm36.199219-12.097657c-3.402344 3.199219-8.699219 3.199219-12.101563 0l-96.597656-96.5c-3.300781-3.300781-3.300781-8.699218 0-12.101562 3.296875-3.300781 8.699219-3.300781 12.097656 0l96.5 96.601562c3.402344 3.300782 3.402344 8.699219.101563 12zm0 0"/><path d="m58.339844 187.75c0 4.695312-3.804688 8.5-8.5 8.5-4.695313 0-8.5-3.804688-8.5-8.5s3.804687-8.5 8.5-8.5c4.695312 0 8.5 3.804688 8.5 8.5zm0 0"/><path d="m58.339844 221.949219c0-4.699219-3.800782-8.5-8.5-8.5-4.699219 0-8.5 3.800781-8.5 8.5 1.097656 32.902343 7 65.402343 17.5 96.601562 1 2.898438 3.398437 5.101563 6.398437 5.699219 3 .601562 6.101563-.398438 8.101563-2.699219s2.699218-5.5 1.699218-8.398437c-9.898437-29.5-15.5-60.203125-16.699218-91.203125zm0 0"/><path d="m471.9375 387.25c-.097656-.199219-.199219-.398438-.398438-.597656l-16.398437-32.800782c-2.203125-4.300781-6.601563-7.101562-11.5-7.101562-4.902344 0-9.300781 2.699219-11.5 7.101562l-23.800781 47.597657c-6.101563 12.300781-5.902344 26.800781.597656 38.902343 5.902344 11.300782 17 18.898438 29.601562 20.398438 1.601563.199219 3.300782.300781 5 .300781 1.699219 0 3.300782-.101562 5-.300781 12.601563-1.5 23.699219-9.097656 29.601563-20.300781 6.5-12.097657 6.796875-26.597657.699219-38.796875zm-8.597656 44.800781c-3.300782 6.300781-9.5 10.699219-16.601563 11.5-2 .199219-4 .199219-6 0-7.097656-.898437-13.300781-5.199219-16.597656-11.5-3.902344-7.199219-4.101563-15.800781-.402344-23.101562l19.902344-40 12.898437 25.703125c.101563.199218.199219.398437.398438.597656l6.800781 13.601562c3.699219 7.5 3.5 16.097657-.398437 23.199219zm0 0"/></svg>