<svg height="511pt" viewBox="-21 0 511 511.84784" width="511pt" xmlns="http://www.w3.org/2000/svg"><path d="m392.957031 230.246094c0 18.851562-15.28125 34.136718-34.132812 34.136718-18.851563 0-34.132813-15.285156-34.132813-34.136718 0-18.847656 34.132813-59.730469 34.132813-59.730469s34.132812 40.882813 34.132812 59.730469zm0 0" fill="#f44335"/><path d="m282.023438 170.515625v130.644531l-14.847657 183.464844c-22.613281 11.09375-68.609375 18.691406-121.683593 18.691406-4.355469 0-8.707032-.085937-12.972657-.171875-.339843.042969-.683593.042969-1.023437 0-68.863282-1.792969-122.539063-16.300781-122.539063-33.964843v-298.664063zm0 0" fill="#c52828"/><path d="m256.425781 170.515625v130.644531l-14.851562 183.464844c-20.820313 10.242188-61.351563 17.410156-109.054688 18.519531-.339843.042969-.683593.042969-1.023437 0-68.863282-1.792969-122.539063-16.300781-122.539063-33.964843v-298.664063zm0 0" fill="#f44335"/><path d="m282.023438 170.515625c0-18.851563-61.128907-34.132813-136.53125-34.132813-75.40625 0-136.535157 15.28125-136.535157 34.132813s61.128907 34.132813 136.535157 34.132813c75.402343 0 136.53125-15.28125 136.53125-34.132813zm0 0" fill="#c52828"/><path d="m247.890625 170.515625c0-18.851563-55.398437-34.132813-123.734375-34.132813s-123.730469 15.28125-123.730469 34.132813 55.394531 34.132813 123.730469 34.132813 123.734375-15.28125 123.734375-34.132813zm0 0" fill="#f44335"/><path d="m461.222656 324.113281v145.066407c0 18.859374-45.824218 34.136718-102.398437 34.136718-4.351563 0-8.617188-.085937-12.800781-.257812-50.515626-2.132813-89.597657-16.46875-89.597657-33.878906v-145.066407zm0 0" fill="#6a1b9a"/><path d="m435.625 324.113281v145.066407c0 17.410156-39.082031 31.746093-89.601562 33.878906-50.515626-2.132813-89.597657-16.46875-89.597657-33.878906v-145.066407zm0 0" fill="#9d27b0"/><path d="m213.757812 200.039062v64.34375c-.027343 9.414063-7.652343 17.035157-17.066406 17.066407-9.398437-.070313-16.996094-7.671875-17.066406-17.066407v68.265626c0 9.425781-7.640625 17.066406-17.066406 17.066406-9.425782 0-17.066406-7.640625-17.066406-17.066406v-34.132813c0 9.425781-7.644532 17.066406-17.066407 17.066406-9.425781 0-17.070312-7.640625-17.070312-17.066406v-94.976563zm0 0" fill="#c52828"/><path d="m145.492188 179.046875c-4.714844 0-8.535157-3.820313-8.535157-8.53125v-68.269531c0-4.710938 3.820313-8.53125 8.535157-8.53125 4.710937 0 8.53125 3.820312 8.53125 8.53125v68.269531c0 4.710937-3.820313 8.53125-8.53125 8.53125zm0 0" fill="#af8066"/><path d="m179.625 68.113281c0 18.851563-15.28125 34.132813-34.132812 34.132813-18.851563 0-34.136719-15.28125-34.136719-34.132813 0-18.847656 34.136719-59.730469 34.136719-59.730469s34.132812 40.882813 34.132812 59.730469zm0 0" fill="#f44335"/><path d="m162.558594 83.628906c.578125 6.460938-2.542969 12.695313-8.0625 16.105469-5.519532 3.410156-12.492188 3.410156-18.011719 0s-8.640625-9.644531-8.058594-16.105469c0-10.285156 17.066407-32.582031 17.066407-32.582031s17.066406 22.296875 17.066406 32.582031zm0 0" fill="#fdd834"/><path d="m375.890625 245.761719c.578125 6.460937-2.542969 12.695312-8.0625 16.105469-5.519531 3.410156-12.488281 3.410156-18.007813 0-5.519531-3.410157-8.640624-9.644532-8.0625-16.105469 0-10.28125 17.066407-32.582031 17.066407-32.582031s17.066406 22.300781 17.066406 32.582031zm0 0" fill="#fdd834"/><path d="m435.625 346.726562v45.65625c0 9.425782-7.640625 17.066407-17.066406 17.066407-9.425782 0-17.066406-7.640625-17.066406-17.066407v51.199219c0 9.425781-7.644532 17.066407-17.066407 17.066407-9.425781 0-17.070312-7.640626-17.070312-17.066407v-34.132812c0 9.425781-7.640625 17.066406-17.066407 17.066406-9.425781 0-17.066406-7.640625-17.066406-17.066406v-52.3125zm0 0" fill="#6a1b9a"/><path d="m461.222656 324.113281c0-18.851562-45.84375-34.132812-102.398437-34.132812-56.554688 0-102.398438 15.28125-102.398438 34.132812 0 18.851563 45.84375 34.132813 102.398438 34.132813 56.554687 0 102.398437-15.28125 102.398437-34.132813zm0 0" fill="#6a1b9a"/><path d="m427.089844 324.113281c0-18.851562-40.113282-34.132812-89.597656-34.132812-49.484376 0-89.601563 15.28125-89.601563 34.132812 0 18.851563 40.117187 34.132813 89.601563 34.132813 49.484374 0 89.597656-15.28125 89.597656-34.132813zm0 0" fill="#9d27b0"/><path d="m358.824219 324.113281c-4.714844 0-8.535157-3.820312-8.535157-8.53125v-51.199219c0-4.714843 3.820313-8.535156 8.535157-8.535156 4.710937 0 8.53125 3.820313 8.53125 8.535156v51.199219c0 4.710938-3.820313 8.53125-8.53125 8.53125zm0 0" fill="#af8066"/><path d="m145.492188 511.847656c50.082031 0 95.878906-6.757812 121.445312-17.75 21.058594 11.699219 56.550781 17.75 91.886719 17.75 55.125 0 110.933593-14.652344 110.933593-42.667968v-145.066407c0-26.5625-50.195312-41.09375-102.402343-42.519531v-9.53125c19.855469-4.082031 34.109375-21.546875 34.136719-41.816406 0-20.886719-30.082032-57.972656-36.113282-65.203125-1.675781-1.851563-4.058594-2.910157-6.554687-2.910157-2.5 0-4.878907 1.058594-6.554688 2.910157-6.03125 7.230469-36.113281 44.316406-36.113281 65.203125.027344 20.269531 14.28125 37.734375 34.132812 41.816406v9.539062c-20.167968.347657-40.222656 3.113282-59.730468 8.242188v-119.328125c0-31.925781-84.882813-41.625-136.535156-42.582031v-18.003906c19.851562-4.085938 34.109374-21.546876 34.132812-41.816407 0-20.886719-30.078125-57.972656-36.113281-65.203125-1.671875-1.851562-4.054688-2.910156-6.550781-2.910156-2.5 0-4.878907 1.058594-6.554688 2.910156-6.035156 7.230469-36.113281 44.316406-36.113281 65.203125.023437 20.269531 14.28125 37.730469 34.132812 41.816407v18.003906c-51.652343.957031-136.53125 10.65625-136.53125 42.582031v298.664063c0 33.75 94.890625 42.667968 145.066407 42.667968zm213.332031-17.066406c-60.730469 0-93.867188-16.914062-93.867188-25.601562v-121.316407c18.574219 9.59375 38.886719 15.363281 59.734375 16.964844v44.621094c0 14.136719 11.460938 25.597656 25.597656 25.597656 2.914063-.027344 5.800782-.558594 8.535157-1.570313v10.105469c0 14.136719 11.460937 25.597657 25.601562 25.597657 14.136719 0 25.597657-11.460938 25.597657-25.597657v-27.171875c2.734374 1.011719 5.621093 1.542969 8.535156 1.570313 14.136718 0 25.597656-11.460938 25.597656-25.597657v-40.109374c2.933594-1.296876 5.785156-2.777344 8.535156-4.425782v121.332032c0 8.6875-33.136718 25.601562-93.867187 25.601562zm42.667969-110.933594c-4.714844 0-8.535157 3.820313-8.535157 8.535156v51.199219c0 4.710938-3.820312 8.53125-8.53125 8.53125-4.714843 0-8.535156-3.820312-8.535156-8.53125v-34.132812c0-4.714844-3.820313-8.535157-8.535156-8.535157-4.710938 0-8.53125 3.820313-8.53125 8.535157 0 4.710937-3.820313 8.53125-8.535157 8.53125-4.710937 0-8.53125-3.820313-8.53125-8.53125v-43.179688c5.65625.316407 11.355469.511719 17.066407.511719 23.027343.230469 45.980469-2.589844 68.265625-8.386719v33.988281c0 4.710938-3.820313 8.53125-8.53125 8.53125-4.714844 0-8.535156-3.820312-8.535156-8.53125 0-4.714843-3.820313-8.535156-8.53125-8.535156zm-68.269532-153.601562c0-9.15625 13.390625-30.113282 25.601563-46.078125 12.210937 15.921875 25.601562 36.882812 25.601562 46.078125 0 14.140625-11.464843 25.601562-25.601562 25.601562-14.140625 0-25.601563-11.460937-25.601563-25.601562zm25.601563 93.867187c4.710937 0 8.53125-3.820312 8.53125-8.53125v-16.921875c55.261719 1.5 85.335937 17.1875 85.335937 25.453125 0 8.6875-33.136718 25.601563-93.867187 25.601563s-93.867188-16.914063-93.867188-25.601563c0-8.265625 30.070313-23.953125 85.332031-25.453125v16.921875c0 4.710938 3.820313 8.53125 8.535157 8.53125zm-110.933594 0v145.066407c.082031 4.433593 1.53125 8.734374 4.148437 12.316406-34.679687 9.597656-70.574218 14.074218-106.546874 13.285156-83.140626 0-128-18.167969-128-25.601562v-276.980469c19.828124 10.785156 53.859374 16.535156 85.332031 19.15625v87.160156c0 14.136719 11.460937 25.597656 25.601562 25.597656 2.910157-.027343 5.796875-.558593 8.53125-1.570312v10.105469c0 14.136718 11.460938 25.597656 25.601563 25.597656 14.136718 0 25.597656-11.460938 25.597656-25.597656v-44.21875c7.824219 2.871093 16.558594 1.71875 23.371094-3.078126 6.8125-4.800781 10.832031-12.636718 10.761718-20.96875v-57.175781c17.75-2.300781 35.027344-7.371093 51.203126-15.027343v103.773437c-15.609376 6.949219-25.601563 16.351563-25.601563 28.160156zm-59.734375-68.265625v-8.53125c0-4.714844-3.820312-8.535156-8.53125-8.535156-4.714844 0-8.535156 3.820312-8.535156 8.535156v85.332032c0 4.710937-3.820313 8.53125-8.53125 8.53125-4.714844 0-8.535156-3.820313-8.535156-8.53125v-93.867188c0-4.714844-3.820313-8.535156-8.53125-8.535156-4.714844 0-8.535157 3.820312-8.535157 8.535156v59.734375c0 4.710937-3.820312 8.53125-8.53125 8.53125-4.714843 0-8.535156-3.820313-8.535156-8.53125v-86.015625c9.242187.46875 17.921875.679688 25.601563.679688 19.960937-.046876 39.902343-1.230469 59.730468-3.546876v54.75c0 4.710938-3.820312 8.53125-8.53125 8.53125-2.300781.007813-4.503906-.9375-6.085937-2.609374-1.582031-1.5625-2.464844-3.699219-2.449219-5.921876zm-68.265625-187.734375c0-9.15625 13.390625-30.113281 25.601563-46.078125 12.210937 15.921875 25.597656 36.878906 25.597656 46.078125 0 14.140625-11.460938 25.601563-25.597656 25.601563-14.140626 0-25.601563-11.460938-25.601563-25.601563zm17.066406 76.921875v25.480469c0 4.710937 3.820313 8.53125 8.535157 8.53125 4.710937 0 8.53125-3.820313 8.53125-8.53125v-25.480469c77.601562 1.195313 119.46875 18.3125 119.46875 25.480469 0 7.429687-44.863282 25.597656-128 25.597656-83.140626 0-128-18.167969-128-25.597656 0-7.167969 41.863281-24.285156 119.464843-25.480469zm0 0"/></svg>