<svg height="512pt" viewBox="-9 0 512 512" width="512pt" xmlns="http://www.w3.org/2000/svg"><path d="m486.398438 201.128906c0 4.097656-.082032 8.195313-.339844 12.203125-3.242188 62.292969-31.316406 112.984375-67.925782 125.183594-5.492187 1.882813-11.261718 2.832031-17.066406 2.816406-5.570312.03125-11.105468-.863281-16.382812-2.644531-.238282-.015625-.46875-.074219-.683594-.171875-13.535156-5.027344-25.367188-13.78125-34.132812-25.257813l-26.964844-168.191406h149.589844c3.964843-.070312 7.445312 2.628906 8.359374 6.484375 3.734376 16.261719 5.59375 32.894531 5.546876 49.578125zm0 0" fill="#c52828"/><path d="m453.632812 201.128906c0 4.097656-.085937 8.195313-.34375 12.203125-3.242187 62.292969-31.316406 112.984375-67.921874 125.183594-.429688.230469-.941407.230469-1.367188 0-13.535156-5.027344-25.367188-13.78125-34.132812-25.257813l-26.964844-168.191406h116.820312c3.964844-.070312 7.445313 2.628906 8.363282 6.484375 3.730468 16.261719 5.59375 32.894531 5.546874 49.578125zm0 0" fill="#f44335"/><path d="m486.398438 201.128906c0 4.097656-.082032 8.195313-.339844 12.203125h-152.234375l-10.921875-68.265625h149.589844c3.964843-.070312 7.445312 2.628906 8.359374 6.484375 3.734376 16.261719 5.59375 32.894531 5.546876 49.578125zm0 0" fill="#00838f"/><path d="m453.632812 201.128906c0 4.097656-.085937 8.195313-.34375 12.203125h-152.234374l-10.921876-68.265625h149.589844c3.964844-.070312 7.445313 2.628906 8.363282 6.484375 3.730468 16.261719 5.59375 32.894531 5.546874 49.578125zm0 0" fill="#00bcd4"/><path d="m179.199219 213.332031v273.066407c-.027344 9.414062-7.652344 17.039062-17.066407 17.066406h-136.53125c-9.414062-.027344-17.039062-7.652344-17.066406-17.066406v-273.066407c.003906-12.746093 5.699219-24.824219 15.527344-32.9375 16.726562-13.070312 26.6875-32.964843 27.136719-54.1875v-57.941406c0-4.710937 3.820312-8.53125 8.535156-8.53125h68.265625c4.710938 0 8.535156 3.820313 8.535156 8.53125v57.941406c.445313 21.222657 10.410156 41.117188 27.132813 54.1875 9.832031 8.113281 15.527343 20.191407 15.53125 32.9375zm0 0" fill="#2e7d32"/><path d="m145.066406 213.332031v273.066407c-.027344 9.414062-7.652344 17.039062-17.066406 17.066406h-102.398438c-9.414062-.027344-17.039062-7.652344-17.066406-17.066406v-273.066407c.003906-12.746093 5.699219-24.824219 15.527344-32.9375 16.726562-13.070312 26.6875-32.964843 27.136719-54.1875v-57.941406c0-4.710937 3.820312-8.53125 8.535156-8.53125h34.132813c4.710937 0 8.53125 3.820313 8.53125 8.53125v57.941406c.449218 21.222657 10.414062 41.117188 27.136718 54.1875 9.832032 8.113281 15.527344 20.191407 15.53125 32.9375zm0 0" fill="#4caf50"/><path d="m68.265625 8.535156h51.199219c4.714844 0 8.535156 3.820313 8.535156 8.53125v42.667969h-68.265625v-42.667969c0-4.710937 3.820313-8.53125 8.53125-8.53125zm0 0" fill="#4e342e"/><path d="m68.265625 8.535156h25.601563c4.710937 0 8.53125 3.820313 8.53125 8.53125v42.667969h-42.664063v-42.667969c0-4.710937 3.820313-8.53125 8.53125-8.53125zm0 0" fill="#795548"/><path d="m179.199219 443.734375c-28.335938 3.082031-56.828125 4.535156-85.332031 4.351563-28.503907.183593-56.996094-1.269532-85.332032-4.351563v-217.6875c28.335938 3.082031 56.828125 4.535156 85.332032 4.351563 28.503906.183593 56.996093-1.269532 85.332031-4.351563zm0 0" fill="#00838f"/><path d="m145.066406 443.734375c-22.621094 3.078125-45.4375 4.53125-68.265625 4.351563-22.832031.179687-45.644531-1.273438-68.265625-4.351563v-217.6875c22.621094 3.078125 45.433594 4.535156 68.265625 4.351563 22.828125.183593 45.644531-1.273438 68.265625-4.351563zm0 0" fill="#00bcd4"/><path d="m145.066406 337.066406c0-40.058594-22.921875-72.53125-51.199218-72.53125-28.277344 0-51.199219 32.472656-51.199219 72.53125s22.921875 72.535156 51.199219 72.535156c28.277343 0 51.199218-32.476562 51.199218-72.535156zm0 0" fill="#fdd834"/><path d="m110.933594 337.066406c0-21.207031-7.640625-38.398437-17.066406-38.398437-9.425782 0-17.066407 17.191406-17.066407 38.398437 0 21.207032 7.640625 38.398438 17.066407 38.398438 9.425781 0 17.066406-17.191406 17.066406-38.398438zm0 0" fill="#ffb301"/><path d="m384 201.128906c0 77.398438-38.230469 140.203125-85.332031 140.203125-5.777344.011719-11.515625-.941406-16.984375-2.816406h-.167969c-38.914063-13.140625-68.183594-69.628906-68.183594-137.386719-.039062-16.679687 1.820313-33.316406 5.546875-49.578125.902344-3.832031 4.34375-6.523437 8.277344-6.484375h149.675781c4.824219 18.296875 7.234375 37.144532 7.167969 56.0625zm0 0" fill="#6a1b9a"/><path d="m349.867188 201.128906c0 67.757813-29.269532 124.246094-68.183594 137.386719h-.167969c-38.914063-13.140625-68.183594-69.628906-68.183594-137.386719-.039062-16.679687 1.820313-33.316406 5.546875-49.578125.902344-3.832031 4.34375-6.523437 8.277344-6.484375h115.542969c4.824219 18.296875 7.234375 37.144532 7.167969 56.0625zm0 0" fill="#9d27b0"/><path d="m281.601562 338.515625h34.132813v130.816406h-34.132813zm0 0" fill="#00bcd4"/><path d="m281.601562 469.332031h34.132813c18.851563 0 34.132813 15.285157 34.132813 34.132813h-102.402344c0-18.847656 15.285156-34.132813 34.136718-34.132813zm0 0" fill="#00838f"/><path d="m384 338.515625h34.132812v130.816406h-34.132812zm0 0" fill="#00bcd4"/><path d="m384 469.332031h34.132812c18.851563 0 34.132813 15.285157 34.132813 34.132813h-102.398437c0-18.847656 15.28125-34.132813 34.132812-34.132813zm0 0" fill="#00838f"/><path d="m384 201.128906c0 4.097656-.085938 8.195313-.339844 12.203125h-169.984375c-.257812-4.007812-.34375-8.105469-.34375-12.203125-.039062-16.679687 1.820313-33.316406 5.546875-49.578125.902344-3.832031 4.34375-6.523437 8.277344-6.484375h149.675781c4.824219 18.296875 7.234375 37.144532 7.167969 56.0625zm0 0" fill="#00838f"/><path d="m349.867188 201.128906c0 4.097656-.085938 8.195313-.34375 12.203125h-135.847657c-.257812-4.007812-.34375-8.105469-.34375-12.203125-.039062-16.679687 1.820313-33.316406 5.546875-49.578125.902344-3.832031 4.34375-6.523437 8.277344-6.484375h115.542969c4.824219 18.296875 7.234375 37.144532 7.167969 56.0625zm0 0" fill="#00bcd4"/><path d="m25.601562 512h136.53125c14.140626 0 25.601563-11.460938 25.601563-25.601562v-273.066407c.015625-15.292969-6.820313-29.789062-18.628906-39.507812-14.722657-11.480469-23.539063-28.9375-24.039063-47.597657v-57.960937c-.019531-6.070313-3.269531-11.667969-8.53125-14.691406v-36.507813c0-9.425781-7.644531-17.066406-17.070312-17.066406h-51.199219c-9.425781 0-17.066406 7.640625-17.066406 17.066406v36.507813c-5.261719 3.023437-8.515625 8.621093-8.53125 14.691406v57.960937c-.503907 18.660157-9.320313 36.121094-24.039063 47.605469-11.8125 9.714844-18.6484372 24.210938-18.628906 39.5v273.066407c0 6.792968 2.695312 13.300781 7.5 18.101562 4.800781 4.804688 11.308594 7.5 18.101562 7.5zm145.066407-75.945312c-21.777344 2.234374-48.640625 3.464843-76.800781 3.464843-28.160157 0-55.023438-1.230469-76.800782-3.464843v-200.535157c22.035156 2.183594 48.863282 3.371094 76.800782 3.371094s54.765624-1.1875 76.800781-3.371094zm-8.535157 58.878906h-136.53125c-4.714843 0-8.535156-3.820313-8.535156-8.535156v-33.152344c22.035156 2.1875 48.863282 3.371094 76.800782 3.371094s54.765624-1.183594 76.800781-3.371094v33.152344c0 4.714843-3.820313 8.535156-8.535157 8.535156zm-93.867187-477.867188h51.199219v34.132813h-51.199219zm-38.773437 169.925782c18.652343-14.71875 29.746093-37.011719 30.242187-60.765626v-57.960937h68.265625v57.960937c.492188 23.753907 11.585938 46.046876 30.242188 60.765626 7.878906 6.476562 12.4375 16.140624 12.425781 26.339843v5.070313c-21.777344 2.234375-48.640625 3.464844-76.800781 3.464844-28.160157 0-55.023438-1.230469-76.800782-3.464844v-5.070313c-.011718-10.199219 4.546875-19.863281 12.425782-26.339843zm0 0"/><path d="m34.132812 337.066406c0 44.699219 26.804688 81.066406 59.734376 81.066406 32.929687 0 59.734374-36.367187 59.734374-81.066406 0-44.699218-26.804687-81.066406-59.734374-81.066406-32.929688 0-59.734376 36.367188-59.734376 81.066406zm102.402344 0c0 35.292969-19.140625 64-42.667968 64-23.527344 0-42.667969-28.707031-42.667969-64 0-35.292968 19.140625-64 42.667969-64 23.527343 0 42.667968 28.707032 42.667968 64zm0 0"/><path d="m68.265625 337.066406c0 26.863282 13.519531 46.933594 25.601563 46.933594 12.082031 0 25.597656-20.070312 25.597656-46.933594 0-26.863281-13.515625-46.933594-25.597656-46.933594-12.082032 0-25.601563 20.070313-25.601563 46.933594zm25.601563 28.542969c-5.996094-8.273437-9.003907-18.335937-8.535157-28.542969-.46875-10.207031 2.539063-20.269531 8.535157-28.542968 5.992187 8.273437 9.003906 18.335937 8.53125 28.542968.472656 10.207032-2.539063 20.269532-8.53125 28.542969zm0 0"/><path d="m205.242188 215.535156c3.636718 62.652344 30.832031 112.734375 67.824218 128.792969v117.324219c-19.851562 4.082031-34.109375 21.546875-34.132812 41.8125 0 4.714844 3.820312 8.535156 8.53125 8.535156h204.800781c4.714844 0 8.535156-3.820312 8.535156-8.535156-.027343-20.265625-14.28125-37.730469-34.132812-41.8125v-117.375c37.238281-16.351563 64-66.730469 67.753906-128.402344.300781-.816406.472656-1.671875.511719-2.542969-.050782-.503906-.152344-1.003906-.300782-1.492187.179688-3.542969.300782-7.117188.300782-10.710938.039062-17.332031-1.894532-34.617187-5.769532-51.515625-1.800781-7.710937-8.710937-13.144531-16.628906-13.078125h-245.34375c-7.929687-.066406-14.847656 5.378906-16.640625 13.105469-3.855469 16.894531-5.785156 34.171875-5.75 51.5 0 3.574219.179688 7.074219.324219 10.570313-.160156.53125-.269531 1.074218-.324219 1.621093.046875.753907.195313 1.492188.441407 2.203125zm17.675781 6.332032h151.5c-1.890625 31.140624-12.703125 61.082031-31.148438 86.246093-.363281.382813-.6875.800781-.972656 1.246094-10.300781 13.953125-26.308594 22.554687-43.628906 23.441406-38.230469 0-69.921875-48.171875-75.75-110.933593zm169.617187 238.933593v-111.632812c2.824219.429687 5.675782.664062 8.53125.699219 2.855469-.035157 5.707032-.265626 8.535156-.691407v111.625zm-17.070312.851563c-10.269532 2.152344-19.382813 8.015625-25.597656 16.46875-6.214844-8.453125-15.332032-14.316406-25.601563-16.46875v-117.324219c9.707031-4.332031 18.476563-10.511719 25.824219-18.191406 7.234375 7.550781 15.847656 13.652343 25.375 17.96875zm-76.796875-111.785156c2.855469-.023438 5.707031-.246094 8.53125-.667969v111.601562h-17.066407v-111.601562c2.824219.421875 5.675782.644531 8.535157.667969zm-41.207031 145.066406c3.628906-10.21875 13.292968-17.054688 24.140624-17.066406h34.132813c10.84375.011718 20.511719 6.847656 24.140625 17.066406zm184.8125 0h-82.414063c3.628906-10.21875 13.292969-17.054688 24.140625-17.066406h34.132812c10.847657.011718 20.511719 6.847656 24.140626 17.066406zm-26.914063-164.480469c-9.285156 3.132813-19.34375 3.132813-28.628906 0-9.847657-3.675781-18.652344-9.691406-25.660157-17.527344 18.027344-27.128906 28.546876-58.546875 30.492188-91.058593h85.28125c-5.042969 53.964843-29.613281 97.960937-61.484375 108.585937zm57.175781-176.980469c3.578125 15.632813 5.367188 31.621094 5.332032 47.65625 0 1.222656-.085938 2.449219-.101563 3.671875h-85.335937c0-1.230469.113281-2.425781.113281-3.660156.003906-15.996094-1.664063-31.945313-4.976563-47.59375zm-245.429687.128906c.027343-.011718.058593-.011718.085937 0h142.984375c3.558594 15.59375 5.332031 31.542969 5.289063 47.539063 0 1.234375-.082032 2.429687-.109375 3.660156h-153.378907c0-1.230469-.109374-2.425781-.109374-3.660156-.03125-15.992187 1.726562-31.9375 5.238281-47.539063zm0 0"/></svg>