<svg height="504pt" viewBox="0 0 504.18537 504" width="504pt" xmlns="http://www.w3.org/2000/svg"><path d="m193.339844 188.648438c-28.703125 5.121093-67.902344-10.324219-99.628906-42.132813-10.253907-10.1875-19.164063-21.640625-26.523438-34.078125-20.3125-34.75-22.746094-70.925781-3.191406-90.566406 19.558594-19.640625 55.816406-17.121094 90.566406 3.191406 12.441406 7.355469 23.890625 16.269531 34.078125 26.523438 20.503906 19.515624 34.90625 44.558593 41.464844 72.097656zm0 0" fill="#2e7d32"/><path d="m394.699219 251.851562-109.113281 8.394532 50.359374-125.902344 2.6875 1.59375c5.589844-7.90625 11.851563-15.320312 18.714844-22.15625 8.992188-9.023438 18.957032-17.015625 29.714844-23.839844 1.425781-.921875 2.9375-1.847656 4.363281-2.683594 13.152344-7.964843 27.714844-13.324218 42.890625-15.78125h.082032c16.964843-3.652343 34.652343 1.027344 47.59375 12.589844 11.5625 12.9375 16.242187 30.628906 12.589843 47.589844v.085938c-2.457031 15.175781-7.816406 29.738281-15.78125 42.890624-7.355469 12.4375-16.269531 23.890626-26.523437 34.078126-16.183594 16.6875-35.921875 29.511718-57.746094 37.515624zm0 0" fill="#2e7d32"/><path d="m361.125 193.097656c.035156 14.777344-3.875 29.292969-11.332031 42.050782l-72.601563 58.671874-12.589844-10.15625-59.929687-48.429687c-7.519531-12.765625-11.460937-27.320313-11.414063-42.136719.015626-41.417968 30.238282-76.632812 71.175782-82.925781.167968-.085937.25-.085937.335937 0 4.105469-.675781 8.261719-1.015625 12.421875-1.007813 46.355469 0 83.933594 37.578126 83.933594 83.933594zm0 0" fill="#c52828"/><path d="m335.945312 193.097656c.035157 14.777344-3.875 29.292969-11.332031 42.050782l-60.011719 48.515624-59.929687-48.429687c-7.519531-12.765625-11.460937-27.320313-11.414063-42.136719.015626-41.417968 30.238282-76.632812 71.175782-82.925781.167968-.085937.25-.085937.335937 0 40.933594 6.292969 71.160157 41.507813 71.175781 82.925781zm0 0" fill="#f44335"/><path d="m436.667969 319c0 22.261719-8.84375 43.609375-24.585938 59.351562-15.738281 15.738282-37.089843 24.582032-59.351562 24.582032-4.214844.003906-8.425781-.332032-12.589844-1.007813-24.351563-3.605469-45.863281-17.804687-58.753906-38.777343v-88.296876c12.917969-20.914062 34.371093-35.09375 58.671875-38.78125 3.222656-.519531 6.472656-.824218 9.734375-.921874.925781-.082032 1.933593-.082032 2.9375-.082032 22.261719 0 43.613281 8.839844 59.351562 24.582032 15.742188 15.742187 24.585938 37.089843 24.585938 59.351562zm0 0" fill="#c52828"/><path d="m411.484375 319c-.003906 41.480469-30.328125 76.726562-71.34375 82.925781-24.351563-3.605469-45.863281-17.804687-58.753906-38.777343v-88.296876c12.917969-20.914062 34.371093-35.09375 58.671875-38.78125 41.058594 6.140626 71.4375 41.414063 71.425781 82.929688zm0 0" fill="#f44335"/><path d="m200.726562 166.992188c-2.226562 0-4.359374-.882813-5.933593-2.457032l-136.730469-136.730468c-3.179688-3.292969-3.132812-8.527344.101562-11.765626 3.238282-3.238281 8.472657-3.28125 11.769532-.101562l136.753906 136.730469c2.398438 2.398437 3.117188 6.007812 1.816406 9.144531-1.296875 3.136719-4.359375 5.179688-7.75 5.179688zm0 0" fill="#527f72"/><path d="m111.503906 77.761719h-59.359375c-4.632812 0-8.390625-3.757813-8.390625-8.390625 0-4.636719 3.757813-8.394532 8.390625-8.394532h59.359375c4.636719 0 8.394532 3.757813 8.394532 8.394532 0 4.632812-3.757813 8.390625-8.394532 8.390625zm0 0" fill="#527f72"/><path d="m111.503906 77.761719c-4.636718 0-8.394531-3.757813-8.394531-8.390625v-59.351563c0-4.636719 3.757813-8.394531 8.394531-8.394531 4.636719 0 8.394532 3.757812 8.394532 8.394531v59.351563c0 4.632812-3.757813 8.390625-8.394532 8.390625zm0 0" fill="#527f72"/><path d="m153.042969 119.3125h-83.085938c-4.636719 0-8.394531-3.757812-8.394531-8.394531s3.757812-8.394531 8.394531-8.394531h83.09375c4.636719 0 8.394531 3.757812 8.394531 8.394531s-3.757812 8.394531-8.394531 8.394531zm0 0" fill="#527f72"/><path d="m153.042969 119.3125c-4.636719 0-8.394531-3.757812-8.394531-8.394531v-83.085938c0-4.636719 3.757812-8.394531 8.394531-8.394531s8.394531 3.757812 8.394531 8.394531v83.09375c-.003906 4.632813-3.761719 8.386719-8.394531 8.386719zm0 0" fill="#527f72"/><path d="m188.65625 154.925781h-94.960938c-4.636718 0-8.394531-3.757812-8.394531-8.394531s3.757813-8.394531 8.394531-8.394531h94.960938c4.636719 0 8.394531 3.757812 8.394531 8.394531s-3.757812 8.394531-8.394531 8.394531zm0 0" fill="#527f72"/><path d="m188.65625 154.925781c-4.632812 0-8.390625-3.757812-8.390625-8.394531v-94.964844c0-4.632812 3.757813-8.390625 8.390625-8.390625 4.636719 0 8.394531 3.757813 8.394531 8.390625v94.964844c0 4.636719-3.757812 8.394531-8.394531 8.394531zm0 0" fill="#527f72"/><path d="m197.285156 401.925781c-10.929687 26.0625-29.214844 48.378907-52.625 64.210938-11.742187 8.457031-24.519531 15.367187-38.023437 20.5625-14.277344 5.710937-29.527344 8.589843-44.90625 8.476562-17.332031.785157-34.003907-6.726562-44.902344-20.226562-9.292969-14.628907-11.011719-32.824219-4.617187-48.933594 4.863281-14.648437 12.566406-28.195313 22.660156-39.867187l.085937-.085938c9.257813-11.019531 19.894531-20.808594 31.644531-29.125 17.917969-13.207031 38.472657-22.398438 60.261719-26.941406zm0 0" fill="#2e7d32"/><g fill="#527f72"><path d="m16.835938 483.34375c-3.652344 0-6.882813-2.359375-7.996094-5.835938-1.113282-3.472656.148437-7.269531 3.117187-9.390624l134.464844-96.019532c3.773437-2.695312 9.015625-1.820312 11.707031 1.953125 2.695313 3.773438 1.820313 9.015625-1.953125 11.710938l-134.472656 96.019531c-1.417969 1.019531-3.121094 1.5625-4.867187 1.5625zm0 0"/><path d="m61.714844 502.867188c-.464844 0-.933594-.035157-1.394532-.109376-2.195312-.367187-4.15625-1.589843-5.449218-3.402343-1.292969-1.8125-1.816406-4.0625-1.449219-6.257813l9.738281-58.546875c.761719-4.570312 5.085938-7.660156 9.660156-6.898437 4.570313.761718 7.660157 5.089844 6.898438 9.660156l-9.738281 58.546875c-.675781 4.039063-4.167969 7-8.265625 7.007813zm0 0"/><path d="m71.46875 444.320312c-.464844.003907-.929688-.035156-1.386719-.117187l-58.542969-9.753906c-4.574218-.761719-7.664062-5.085938-6.898437-9.660157.761719-4.570312 5.085937-7.660156 9.660156-6.898437l58.542969 9.761719c4.296875.726562 7.324219 4.621094 6.964844 8.964844-.355469 4.347656-3.980469 7.691406-8.339844 7.703124zm0 0"/><path d="m105.621094 492.128906c-.464844.003906-.925782-.035156-1.386719-.105468-2.195313-.367188-4.15625-1.589844-5.449219-3.402344-1.292968-1.8125-1.816406-4.0625-1.449218-6.261719l13.664062-81.945313c.496094-2.957031 2.527344-5.425781 5.335938-6.480468 2.808593-1.050782 5.964843-.523438 8.28125 1.382812 2.316406 1.90625 3.4375 4.902344 2.945312 7.859375l-13.664062 81.964844c-.683594 4.035156-4.183594 6.992187-8.277344 6.988281zm0 0"/><path d="m119.285156 410.175781c-.464844 0-.933594-.039062-1.394531-.117187l-81.960937-13.65625c-4.574219-.761719-7.660157-5.085938-6.898438-9.660156.761719-4.574219 5.085938-7.660157 9.660156-6.898438l81.960938 13.65625c4.320312.703125 7.375 4.609375 7.019531 8.96875-.359375 4.363281-4.007813 7.71875-8.386719 7.707031zm0 0"/><path d="m144.660156 474.570312c-4.621094 0-8.371094-3.730468-8.394531-8.351562-.003906-.488281.035156-.976562.117187-1.457031l13.503907-81.167969c.761719-4.570312 5.085937-7.664062 9.65625-6.902344 4.574219.761719 7.664062 5.082032 6.90625 9.65625l-13.480469 81.023438c-.59375 4.132812-4.132812 7.203125-8.308594 7.199218zm0 0"/><path d="m143.238281 378.089844c-.460937 0-.925781-.039063-1.382812-.117188l-76.632813-12.757812c-4.449218-.878906-7.398437-5.136719-6.652344-9.613282.742188-4.476562 4.910157-7.550781 9.40625-6.941406l76.632813 12.757813c4.296875.726562 7.320313 4.621093 6.964844 8.964843s-3.976563 7.691407-8.335938 7.707032zm0 0"/><path d="m360.117188 214.332031c-3.394532 0-6.453126-2.042969-7.75-5.179687-1.300782-3.136719-.582032-6.746094 1.816406-9.148438l121.875-121.894531c3.292968-3.183594 8.527344-3.136719 11.765625.101563 3.238281 3.238281 3.28125 8.472656.101562 11.765624l-121.875 121.871094c-1.566406 1.585938-3.703125 2.476563-5.933593 2.484375zm0 0"/><path d="m493.84375 139.957031h-59.351562c-4.636719 0-8.394532-3.757812-8.394532-8.390625 0-4.636718 3.757813-8.394531 8.394532-8.394531h59.351562c4.632812 0 8.390625 3.757813 8.390625 8.394531 0 4.632813-3.757813 8.390625-8.390625 8.390625zm0 0"/><path d="m434.492188 139.957031c-4.636719 0-8.394532-3.757812-8.394532-8.390625v-59.335937c0-4.632813 3.757813-8.390625 8.394532-8.390625 4.636718 0 8.394531 3.757812 8.394531 8.390625v59.351562c-.011719 4.628907-3.765625 8.375-8.394531 8.375zm0 0"/><path d="m476.03125 181.507812h-83.09375c-4.636719 0-8.394531-3.757812-8.394531-8.394531s3.757812-8.394531 8.394531-8.394531h83.09375c4.636719 0 8.394531 3.757812 8.394531 8.394531s-3.757812 8.394531-8.394531 8.394531zm0 0"/><path d="m392.945312 181.507812c-4.636718 0-8.394531-3.757812-8.394531-8.394531v-83.09375c0-4.636719 3.757813-8.394531 8.394531-8.394531 4.636719 0 8.394532 3.757812 8.394532 8.394531v83.09375c0 4.636719-3.757813 8.394531-8.394532 8.394531zm0 0"/><path d="m452.277344 217.101562h-92.664063c-4.632812 0-8.390625-3.757812-8.390625-8.390624 0-4.636719 3.757813-8.394532 8.390625-8.394532h92.664063c4.636718 0 8.394531 3.757813 8.394531 8.394532 0 4.632812-3.757813 8.390624-8.394531 8.390624zm0 0"/></g><path d="m293.976562 319c0 22.261719-8.839843 43.609375-24.582031 59.351562-15.742187 15.738282-37.089843 24.582032-59.351562 24.582032-4.160157.003906-8.316407-.332032-12.421875-1.007813-.082032.085938-.167969.085938-.335938 0-40.855468-6.386719-70.96875-41.574219-70.96875-82.925781s30.113282-76.542969 70.96875-82.929688c.167969-.082031.253906-.082031.335938 0 4.105468-.671874 8.261718-1.011718 12.421875-1.003906 46.355469 0 83.933593 37.578125 83.933593 83.933594zm0 0" fill="#c52828"/><path d="m268.796875 319c-.015625 41.417969-30.238281 76.632812-71.175781 82.925781-.082032.085938-.167969.085938-.335938 0-40.855468-6.386719-70.96875-41.574219-70.96875-82.925781s30.113282-76.542969 70.96875-82.929688c.167969-.082031.253906-.082031.335938 0 40.9375 6.296876 71.160156 41.511719 71.175781 82.929688zm0 0" fill="#f44335"/><path d="m178.929688 366.902344c3.277343 3.273437 8.589843 3.273437 11.867187 0l6.65625-6.65625 6.65625 6.65625c3.292969 3.179687 8.527344 3.132812 11.765625-.105469 3.238281-3.234375 3.285156-8.472656.101562-11.765625l-6.65625-6.65625 6.65625-6.65625c3.183594-3.292969 3.136719-8.527344-.101562-11.765625s-8.472656-3.28125-11.765625-.101563l-6.65625 6.65625-6.65625-6.65625c-3.292969-3.179687-8.527344-3.136718-11.765625.101563s-3.28125 8.472656-.101562 11.765625l6.65625 6.65625-6.65625 6.65625c-3.277344 3.277344-3.277344 8.589844 0 11.871094zm0 0"/><path d="m254.46875 173.851562c3.277344 3.277344 8.59375 3.277344 11.871094 0l6.65625-6.65625 6.65625 6.65625c3.292968 3.179688 8.527344 3.136719 11.765625-.101562 3.234375-3.238281 3.28125-8.472656.101562-11.765625l-6.65625-6.65625 6.65625-6.65625c3.179688-3.292969 3.132813-8.527344-.101562-11.765625-3.238281-3.238281-8.472657-3.285156-11.765625-.101562l-6.65625 6.652343-6.65625-6.652343c-3.292969-3.183594-8.53125-3.136719-11.765625.101562-3.238281 3.238281-3.285157 8.472656-.105469 11.765625l6.65625 6.65625-6.65625 6.65625c-3.273438 3.277344-3.273438 8.589844 0 11.867187zm0 0"/><path d="m400.632812 271.097656c-3.277343-3.277344-8.589843-3.277344-11.867187 0l-6.65625 6.65625-6.65625-6.65625c-3.292969-3.179687-8.527344-3.136718-11.765625.101563s-3.285156 8.472656-.101562 11.765625l6.65625 6.65625-6.65625 6.65625c-2.183594 2.109375-3.058594 5.230468-2.289063 8.164062.765625 2.933594 3.058594 5.226563 5.992187 5.992188 2.9375.769531 6.058594-.105469 8.164063-2.285156l6.65625-6.65625 6.65625 6.65625c3.292969 3.179687 8.527344 3.132812 11.765625-.105469 3.238281-3.234375 3.28125-8.472657.101562-11.765625l-6.65625-6.65625 6.65625-6.65625c3.277344-3.277344 3.277344-8.589844 0-11.867188zm0 0"/><path d="m61.65625 350.15625c-12.210938 8.636719-23.273438 18.789062-32.917969 30.214844l-.304687.34375c-10.789063 12.527344-19.015625 27.046875-24.214844 42.742187-7.226562 18.625-5.082031 39.585938 5.765625 56.359375 12.402344 15.667969 31.527344 24.492188 51.496094 23.753906h2.8125c15.527343-.289062 30.878906-3.363281 45.324219-9.074218 14.164062-5.449219 27.574218-12.695313 39.894531-21.5625.191406-.140625.375-.300782.578125-.445313l.082031-.066406c22.464844-15.640625 40.496094-36.835937 52.34375-61.515625 2.515625.203125 4.976563.378906 7.511719.378906 27.644531.003906 53.832031-12.394531 71.34375-33.785156 22.152344 27.375 57.949218 39.765625 92.285156 31.941406 34.335938-7.828125 61.230469-34.503906 69.335938-68.773437 8.105468-34.269531-3.992188-70.167969-31.1875-92.542969 17.253906-8.453125 32.945312-19.777344 46.40625-33.480469 10.773437-10.703125 20.128906-22.738281 27.84375-35.816406 8.492187-14.085937 14.207031-29.671875 16.835937-45.910156l.050781-.386719c3.949219-19.496094-1.625-39.710938-15.015625-54.421875-14.695312-13.375-34.878906-18.949219-54.355469-15.019531-.144531.011718-.289062.027344-.429687.050781-16.269531 2.632813-31.882813 8.363281-45.996094 16.878906-1.527343.898438-3.136719 1.890625-4.582031 2.820313-11.285156 7.15625-21.738281 15.542968-31.171875 25.003906-4.890625 4.945312-9.488281 10.167969-13.765625 15.648438-28.253906-24.746094-68.742188-29.757813-102.175781-12.648438-8.113281-24.683594-22.109375-47.019531-40.773438-65.09375l-.203125-.210938c-10.664062-10.707031-22.652344-20.015624-35.671875-27.695312-39.273437-22.957031-78.796875-23.710938-100.71875-1.882812-21.824219 21.898437-21.078125 61.433593 1.886719 100.722656 7.695312 13.023437 17.019531 25.007812 27.75 35.671875l.183594.183593c28.539062 28.539063 64.125 45.460938 94.199218 45.460938 1.050782 0 2.066407-.085938 3.105469-.125.460938 10.507812 2.734375 20.863281 6.714844 30.601562-43.117187 8.6875-74.144531 46.539063-74.207031 90.523438 0 1.484375.152344 2.9375.226562 4.40625-20.242187 5.257812-39.304687 14.300781-56.183594 26.648438zm76.976562 27.277344.109376.144531-21.503907 15.359375-66.945312-11.164062c5.75-5.765626 11.921875-11.09375 18.464843-15.945313zm-1.679687 83.75c-6.726563 4.632812-13.796875 8.753906-21.144531 12.320312l11.140625-66.902344 21.65625-15.460937zm-118.574219-25.589844 31.71875 5.285156-30.402344 21.707032c-3.050781-8.679688-3.511718-18.058594-1.316406-26.992188zm41.472656 18.953125-5.28125 31.675781c-9.148437-.851562-17.859374-4.320312-25.085937-9.996094zm19.304688-13.800781 28.488281-20.34375-10.074219 60.429687c-8.429687 2.859375-17.160156 4.742188-26.019531 5.609375zm-41.832031-44.117188 60.589843 10.074219-28.496093 20.378906-45.785157-7.628906c3.65625-8.117187 8.25-15.777344 13.691407-22.824219zm119.261719 48.96875 7.738281-46.492187c6.660156 3.808593 13.773437 6.765625 21.167969 8.804687-7.328126 14.175782-17.117188 26.933594-28.90625 37.6875zm271.6875-126.597656c-.050782 41.699219-33.84375 75.488281-75.542969 75.539062-24.433594.046876-47.351563-11.835937-61.386719-31.835937 14.703125-27.28125 14.703125-60.132813 0-87.417969 13.667969-19.273437 35.574219-31.03125 59.1875-31.777344.691406-.050781 1.445312-.050781 2.199219-.050781 41.699219.050781 75.492187 33.84375 75.542969 75.542969zm-26.933594-227.464844c7.851562-4.199218 16.15625-7.488281 24.757812-9.792968v46.390624l-24.757812 24.761719zm79.828125 5.257813c4.460937 8.054687 6.464843 17.238281 5.757812 26.421875h-32.179687zm-6.605469 67.984375h-61.355469l24.753907-24.761719h46.40625c-2.316407 8.582031-5.605469 16.871094-9.804688 24.703125zm-78.140625 16.789062h67.859375c-4.734375 6.648438-9.957031 12.9375-15.628906 18.808594h-71.042969zm-33.574219 45.75c1.351563-3.3125 2.507813-6.703125 3.464844-10.15625h63.707031c-10.617187 8.332032-22.40625 15.054688-34.984375 19.945313-10.019531-5.242188-20.921875-8.578125-32.15625-9.847657zm106.453125-142.433594-26.414062 26.421876v-32.179688c9.175781-.703125 18.359375 1.300781 26.414062 5.757812zm-106.019531 34.832032c6.582031-6.480469 13.699219-12.390625 21.269531-17.675782v67.558594l-15.433593 15.433594c-1.566407-18.035156-8.425782-35.203125-19.71875-49.351562 4.277343-5.621094 8.914062-10.953126 13.882812-15.964844zm-265.9375 18.464844c-5.671875-5.894532-10.898438-12.203126-15.636719-18.867188h67.902344l18.828125 18.824219zm-32.558594-103.652344 26.449219 26.449218h-32.046875c-.683594-9.167968 1.257812-18.34375 5.597656-26.449218zm115.480469 91.742187-18.828125-18.785156v-67.902344c6.65625 4.742188 12.949219 9.96875 18.828125 15.644531zm-35.617187-35.570312-24.75-24.796875v-46.164063c8.597656 2.246094 16.902343 5.480469 24.75 9.644531zm-36.628907-12.9375 24.761719 24.761719h-61.269531c-4.164063-7.851563-7.402344-16.160157-9.644531-24.761719zm90.652344 66.949219-1.679687-1.679688v-69.179688c10.863281 13.761719 18.875 29.550782 23.570312 46.441407-8.679688 6.777343-16.078125 15.046875-21.859375 24.417969zm-95.5625-127.648438v32.054688l-26.453125-26.457032c8.109375-4.335937 17.285156-6.277344 26.453125-5.597656zm12.925781 137.863281h69.171875l5.691407 5.6875c-2.496094 6.597657-4.21875 13.464844-5.136719 20.457031-20.898438 1.273438-46.726563-8.546874-69.726563-26.144531zm85.613282 38.171875c.015624-25 12.402343-48.375 33.082031-62.429687l.207031-.160157c28.488281-19.390624 66.5-16.980468 92.3125 5.847657s32.847656 60.257812 17.089844 90.902343c-5.554688.460938-11.054688 1.421876-16.433594 2.871094-1.953125-.050781-3.863281.589844-5.390625 1.804688-16.089844 5.515625-30.328125 15.398437-41.128906 28.539062-17.507813-21.394531-43.695313-33.800781-71.34375-33.800781h-.292969c-5.292969-10.402344-8.066406-21.902344-8.101562-33.574219zm8.394531 50.359375c41.722656 0 75.542969 33.820313 75.542969 75.542969 0 41.71875-33.820313 75.539062-75.542969 75.539062-41.71875 0-75.539063-33.820312-75.539063-75.539062.050782-41.699219 33.839844-75.492188 75.539063-75.542969zm-83.355469 114.992188-36.820312-6.128907c9.625-5.210937 19.820312-9.289062 30.382812-12.160156 1.496094 6.304688 3.652344 12.4375 6.4375 18.289063zm0 0"/></svg>